<?xml version="1.0" encoding="UTF-8"?>
<svg width="256px" height="256px" viewBox="0 0 256 256" version="1.1" xmlns="http://www.w3.org/2000/svg" xmlns:xlink="http://www.w3.org/1999/xlink">
    <!-- Generator: Sketch 56.3 (81716) - https://sketch.com -->
    <title>Icons/Illustrative/users/advice-256x256</title>
    <desc>Created with Sketch.</desc>
    <g id="Icons/Illustrative/users/advice-256x256" stroke="none" stroke-width="1" fill="none" fill-rule="evenodd">
        <g id="Icons/Illustrative/Oval" fill="#F2F3F2">
            <circle id="Oval" cx="128" cy="128" r="128"></circle>
        </g>
        <g id="Group" transform="translate(56.000000, 48.000000)" fill-rule="nonzero">
            <g id="Layer_1">
                <path d="M63.12,86.8600001 C81.2849324,84.4503251 94.4668483,68.3638806 93.2593865,50.0796432 C92.0519247,31.7954058 76.8690635,17.5821257 58.545,17.5821257 C40.2209366,17.5821257 25.0380754,31.7954058 23.8306136,50.0796432 C22.6231518,68.3638806 35.8050677,84.4503251 53.97,86.8600001 C25.4800353,89.1063962 2.85969666,111.747943 0.640000022,140.24 C0.542257905,141.394721 0.931781852,142.537713 1.71432909,143.392437 C2.49687633,144.24716 3.60115787,144.735752 4.76000002,144.74 L112.33,144.74 C113.489597,144.735518 114.594695,144.247231 115.378785,143.392896 C116.162874,142.538561 116.554784,141.395725 116.46,140.24 C114.231497,111.748211 91.6101105,89.1098607 63.12,86.8600001 L63.12,86.8600001 Z" id="Path" fill="#C4203F"></path>
                <path d="M101.05,37.41 C94.4257686,27.5661353 96.0412913,14.3504403 104.84171,6.39212704 C113.642128,-1.56618624 126.953201,-1.84877231 136.083438,5.72888393 C145.213676,13.3065402 147.388613,26.441766 141.18812,36.5578919 C134.987627,46.6740178 122.295889,50.6969893 111.4,46 L99.1700001,47.31 L101.05,37.41 Z" id="Path" fill="#8B1D41"></path>
                <circle id="Oval" fill="#FFFFFF" cx="112.21" cy="24.07" r="2.15"></circle>
                <circle id="Oval" fill="#FFFFFF" cx="120.82" cy="24.07" r="2.15"></circle>
                <circle id="Oval" fill="#FFFFFF" cx="129.43" cy="24.07" r="2.15"></circle>
            </g>
        </g>
    </g>
</svg>