<svg width="96" height="96" viewBox="0 0 96 96" fill="none" xmlns="http://www.w3.org/2000/svg">
<circle cx="48" cy="48" r="48" fill="#F2F3F2"/>
<path d="M74 67C74 68.1046 73.1046 69 72 69H24C22.8954 69 22 68.1046 22 67V53H74V67Z" fill="#C41F3E"/>
<path fill-rule="evenodd" clip-rule="evenodd" d="M56.5 27C58.433 27 60 28.567 60 30.5V35H72C73.1045 35 73.9999 36.1709 74 37.6152V52H22V37.6152C22.0001 36.1709 22.8955 35 24 35H36V30.5C36 28.567 37.567 27 39.5 27H56.5ZM39.5 30C39.2239 30 39 30.2239 39 30.5V35H57V30.5C57 30.2239 56.7761 30 56.5 30H39.5Z" fill="#8B1D41"/>
<path d="M58 52C58 57.5228 53.5228 62 48 62C42.4772 62 38 57.5228 38 52C38 46.4772 42.4772 42 48 42C53.5228 42 58 46.4772 58 52Z" fill="white"/>
<path fill-rule="evenodd" clip-rule="evenodd" d="M51.1786 47.1279L50.9329 48.7056C50.4107 48.3962 49.8271 48.1488 49.2128 48.025L48.7828 50.8091C50.6872 51.4587 51.5779 52.2321 51.5779 53.9025C51.5779 55.8823 50.1957 56.9341 47.9842 56.9341H47.9228L47.6463 58.6973L46.602 58.4808L46.8477 56.8103C46.0798 56.6866 45.3119 56.4701 44.6055 56.0989L44.8512 54.5212C45.5577 54.9543 46.3563 55.2327 47.1549 55.3564L47.6156 52.2011C45.7727 51.5825 44.8512 50.9328 44.8512 49.2933C44.8512 47.4682 46.172 46.4474 48.2606 46.4474H48.4142L48.5985 45.3028L49.6736 45.5503L49.52 46.5711C50.0729 46.6639 50.6565 46.8495 51.1786 47.1279ZM48.0763 47.9012C47.0012 47.9012 46.5098 48.3653 46.5098 49.1077C46.5098 49.7573 46.8169 50.0976 47.892 50.4997L48.2913 47.9012H48.0763ZM49.9191 54.0572C49.9191 54.9542 49.3048 55.4492 48.1069 55.4492V55.4801H48.0762L48.5062 52.5414C49.6427 52.9435 49.9191 53.3766 49.9191 54.0572Z" fill="#C41F3E"/>
</svg>
