<?xml version="1.0" encoding="UTF-8"?>
<svg width="256px" height="256px" viewBox="0 0 256 256" version="1.1" xmlns="http://www.w3.org/2000/svg" xmlns:xlink="http://www.w3.org/1999/xlink">
    <!-- Generator: Sketch 56.3 (81716) - https://sketch.com -->
    <title>Icons/Illustrative/currency/chash-management-256x256</title>
    <desc>Created with Sketch.</desc>
    <g id="Icons/Illustrative/currency/chash-management-256x256" stroke="none" stroke-width="1" fill="none" fill-rule="evenodd">
        <g id="Icons/Illustrative/Oval" fill="#F2F3F2">
            <circle id="Oval" cx="128" cy="128" r="128"></circle>
        </g>
        <g id="Group" transform="translate(71.000000, 50.000000)" fill-rule="nonzero">
            <g id="Layer_1">
                <polyline id="Path" fill="#8B1D41" points="110 36.59 110 152.38 21.93 152.38 21.93 140.38 98.0700001 140.38 98.0700001 36.59 110.07 36.59"></polyline>
                <polygon id="Path" fill="#C4203F" points="95.0700001 137.37 0.960000028 137.37 0.960000028 15.58 95.0700001 15.58 95.0700001 133.33"></polygon>
                <path d="M67.3300001,8.63000002 L56,8.63000002 C56,4.21172202 52.418278,0.63000002 48,0.63000002 C43.581722,0.63000002 40,4.21172202 40,8.63000002 L28.69,8.63000002 C28.1362554,8.62882892 27.6068083,8.85729262 27.2277636,9.26097523 C26.8487189,9.66465784 26.6540053,10.2074252 26.69,10.76 L27.69,22.83 C27.793084,23.8558026 28.6590439,24.6351665 29.69,24.6300256 L66.2800001,24.6300256 C67.2917831,24.6097527 68.1290041,23.8369333 68.2300001,22.83 L69.2300001,10.76 C69.2655059,10.2243763 69.0842065,9.69696333 68.7268766,9.29637774 C68.3695467,8.89579215 67.8661855,8.65566446 67.3300001,8.63000002 L67.3300001,8.63000002 Z M48,11.1900195 C46.5819431,11.1844823 45.4363337,10.0314222 45.4399999,8.61335929 C45.4436836,7.19529635 46.5952539,6.04818952 48.0133204,6.05001943 C49.4313869,6.05185373 50.58,7.20193232 50.58,8.62000002 C50.58,9.30334256 50.3078659,9.95855216 49.8237324,10.4408091 C49.3395989,10.9230661 48.6833374,11.1926589 48,11.1900195 L48,11.1900195 Z" id="Shape" fill="#8B1D41"></path>
                <rect id="Rectangle" fill="#FFFFFF" x="18.95" y="31.92" width="58.78" height="29.33" rx="3"></rect>
                <ellipse id="Oval" fill="#8B1D41" cx="48.33" cy="46.58" rx="14.52" ry="11.01"></ellipse>
                <path d="M52.19,40.56 L51.87,42.5 C51.2099735,42.1046859 50.4908534,41.8177131 49.74,41.65 L49.21,45.08 C51.57,45.88 52.68,46.84 52.68,48.89 C52.68,51.32 50.94,52.62 48.21,52.62 L48.12,52.62 L47.78,54.85 L46.48,54.57 C46.48,54.57 46.8,52.51 46.78,52.51 C45.8080093,52.3775341 44.865008,52.0834799 43.99,51.64 L44.29,49.7 C45.1740939,50.2055684 46.1434975,50.5445207 47.15,50.7 L47.74,46.8 C45.46,46.03 44.31,45.21 44.31,43.2 C44.31,40.94 45.95,39.69 48.55,39.69 L48.74,39.69 L48.96,38.28 L50.28,38.58 L50.1,39.82 C50.8280243,39.9670655 51.5316362,40.2161912 52.19,40.56 L52.19,40.56 Z M48.3,41.5 C46.98,41.5 46.3,42.07 46.3,42.99 C46.3,43.91 46.7,44.24 48.02,44.71 L48.51,41.5 L48.3,41.5 Z M48.36,50.83 C49.87,50.83 50.62,50.21 50.62,49.1 C50.62,48.27 50.28,47.72 48.87,47.21 L48.32,50.83 L48.36,50.83 Z" id="Shape" fill="#F2F3F2"></path>
                <rect id="Rectangle" fill="#FFFFFF" x="18.95" y="64.79" width="58.78" height="29.33" rx="3"></rect>
                <ellipse id="Oval" fill="#8B1D41" cx="48.33" cy="79.4600001" rx="14.52" ry="11.01"></ellipse>
                <path d="M52.19,73.44 L51.87,75.38 C51.212051,74.980505 50.4922251,74.6932505 49.74,74.53 L49.21,77.96 C51.57,78.7500001 52.68,79.7200001 52.68,81.7700001 C52.68,84.2000001 50.94,85.5000001 48.21,85.5000001 L48.12,85.5000001 L47.78,87.7300001 L46.48,87.4400001 C46.48,87.4400001 46.8,85.3900001 46.78,85.3900001 C45.8080093,85.2575341 44.865008,84.9634799 43.99,84.5200001 L44.29,82.5800001 C45.1740939,83.0855684 46.1434975,83.4245207 47.15,83.5800001 L47.74,79.6800001 C45.46,78.9000001 44.31,78.0900001 44.31,76.08 C44.31,73.81 45.95,72.57 48.55,72.57 L48.74,72.57 L48.96,71.16 L50.28,71.46 L50.1,72.7 C50.8280243,72.8470655 51.5316362,73.0961912 52.19,73.44 L52.19,73.44 Z M48.3,74.38 C46.98,74.38 46.3,74.95 46.3,75.87 C46.3,76.79 46.7,77.11 48.02,77.59 L48.51,74.38 L48.3,74.38 Z M48.36,83.7100001 C49.87,83.7100001 50.62,83.0900001 50.62,81.9800001 C50.62,81.1500001 50.28,80.6000001 48.87,80.0900001 L48.32,83.7100001 L48.36,83.7100001 Z" id="Shape" fill="#F2F3F2"></path>
                <rect id="Rectangle" fill="#FFFFFF" x="18.95" y="97.6700001" width="58.78" height="29.33" rx="3"></rect>
                <ellipse id="Oval" fill="#8B1D41" cx="48.33" cy="112.34" rx="14.52" ry="11.01"></ellipse>
                <path d="M52.19,106.32 L51.87,108.26 C51.212051,107.860505 50.4922251,107.573251 49.74,107.41 L49.21,110.84 C51.57,111.63 52.68,112.59 52.68,114.65 C52.68,117.08 50.94,118.38 48.21,118.38 L48.12,118.38 L47.78,120.61 L46.48,120.32 C46.48,120.32 46.8,118.32 46.78,118.32 C45.8080093,118.187534 44.865008,117.89348 43.99,117.45 L44.29,115.51 C45.1740939,116.015568 46.1434975,116.354521 47.15,116.51 L47.74,112.6 C45.46,111.83 44.31,111.02 44.31,109.01 C44.31,106.74 45.95,105.5 48.55,105.5 L48.74,105.5 L48.96,104.08 L50.28,104.39 L50.1,105.63 C50.8254825,105.761224 51.5289923,105.993483 52.19,106.32 L52.19,106.32 Z M48.3,107.26 C46.98,107.26 46.3,107.83 46.3,108.75 C46.3,109.67 46.7,109.99 48.02,110.47 L48.51,107.26 L48.3,107.26 Z M48.36,116.59 C49.87,116.59 50.62,115.97 50.62,114.86 C50.62,114.03 50.28,113.48 48.87,112.97 L48.32,116.59 L48.36,116.59 Z" id="Shape" fill="#F2F3F2"></path>
            </g>
        </g>
    </g>
</svg>