<?xml version="1.0" encoding="UTF-8"?>
<svg width="256px" height="256px" viewBox="0 0 256 256" version="1.1" xmlns="http://www.w3.org/2000/svg" xmlns:xlink="http://www.w3.org/1999/xlink">
    <!-- Generator: Sketch 57 (83077) - https://sketch.com -->
    <title>Icons/Illustrative/users/contact-person-256x256 Copy</title>
    <desc>Created with Sketch.</desc>
    <g id="Icons/Illustrative/users/contact-person-256x256-Copy" stroke="none" stroke-width="1" fill="none" fill-rule="evenodd">
        <g id="Icons/Illustrative/Oval" fill="#F2F3F2">
            <circle id="Oval" cx="128" cy="128" r="128"></circle>
        </g>
        <g id="Group-14" transform="translate(46.000000, 76.000000)">
            <path d="M90.814466,103.690323 C92.773832,103.690323 94.326862,102.025223 94.1546857,100.088269 C92.295182,76.0632541 71.9439461,57.1354839 47.0816919,57.1354839 C22.2538729,57.1354839 1.90263708,76.0632541 0.00869804717,100.088269 C-0.129042974,102.025223 1.38610825,103.690323 3.3489178,103.690323 L90.814466,103.690323 Z" id="Fill-1" fill="#C22240"></path>
            <path d="M76.1806452,28.5677419 C76.1806452,44.3304546 63.4104122,57.1354839 47.6129032,57.1354839 C31.8501906,57.1354839 19.0451613,44.3652509 19.0451613,28.5677419 C19.0451613,12.770233 31.8501906,0 47.6129032,0 C63.4104122,0 76.1806452,12.770233 76.1806452,28.5677419" id="Fill-3" fill="#C22240"></path>
            <path d="M160.548699,103.688584 C162.526827,103.688584 164.094727,101.988577 163.920902,100.003497 C162.043593,75.4246581 141.497492,56.0605659 116.397179,56.0605659 C91.3316302,56.0605659 70.7855288,75.4246581 68.8734551,100.003497 C68.7343952,101.988577 70.2640542,103.688584 72.2456579,103.688584 L160.548699,103.688584 Z" id="Fill-5" fill="#7B143D"></path>
            <path d="M146.012903,28.5677419 C146.012903,44.3304546 133.24267,57.1354839 117.445161,57.1354839 C101.647652,57.1354839 88.8774194,44.3652509 88.8774194,28.5677419 C88.8774194,12.770233 101.682449,0 117.445161,0 C133.204394,0 146.012903,12.770233 146.012903,28.5677419" id="Fill-8" fill="#7B143D"></path>
            <path d="M37.0322581,40.2064516 C37.0322581,44.8868311 41.2863319,48.6709677 46.5548387,48.6709677 C51.8233455,48.6709677 56.0774194,44.8868311 56.0774194,40.2064516 L37.0322581,40.2064516 Z" id="Fill-10" fill="#F2F3F2"></path>
            <path d="M106.864516,40.2064516 C106.864516,44.8868311 111.121862,48.6709677 116.387097,48.6709677 C121.658876,48.6709677 125.909677,44.8868311 125.909677,40.2064516 L106.864516,40.2064516 Z" id="Fill-12" fill="#F2F3F2"></path>
        </g>
    </g>
</svg>