<svg width="96" height="96" viewBox="0 0 96 96" fill="none" xmlns="http://www.w3.org/2000/svg">
<circle cx="48" cy="48" r="48" fill="#F2F3F2"/>
<path d="M22 32C22 30.8954 22.8954 30 24 30H72C73.1046 30 74 30.8954 74 32V63C74 64.1046 73.1046 65 72 65H24C22.8954 65 22 64.1046 22 63V32Z" fill="#C41F3E"/>
<rect x="22" y="36" width="52" height="6" fill="#8B1D41"/>
<path d="M22 35H74V36H22V35Z" fill="white"/>
<path d="M25 46H56V52H25V46Z" fill="white"/>
<path d="M45 59.5C45 58.6716 45.6716 58 46.5 58H69.5C70.3284 58 71 58.6716 71 59.5C71 60.3284 70.3284 61 69.5 61H46.5C45.6716 61 45 60.3284 45 59.5Z" fill="white"/>
<path d="M59 47C59 46.4477 59.4477 46 60 46H70C70.5523 46 71 46.4477 71 47V51C71 51.5523 70.5523 52 70 52H60C59.4477 52 59 51.5523 59 51V47Z" fill="white"/>
</svg>
