<?xml version="1.0" encoding="UTF-8"?>
<svg width="256px" height="256px" viewBox="0 0 256 256" version="1.1" xmlns="http://www.w3.org/2000/svg" xmlns:xlink="http://www.w3.org/1999/xlink">
    <!-- Generator: Sketch 56.3 (81716) - https://sketch.com -->
    <title>Icons/Illustrative/currency/investments-256x256</title>
    <desc>Created with Sketch.</desc>
    <g id="Icons/Illustrative/currency/investments-256x256" stroke="none" stroke-width="1" fill="none" fill-rule="evenodd">
        <g id="Icons/Illustrative/Oval" fill="#F2F3F2">
            <circle id="Oval" cx="128" cy="128" r="128"></circle>
        </g>
        <g id="Group" transform="translate(61.498054, 77.000000)" fill-rule="nonzero">
            <g id="Layer_1">
                <path d="M84.0101168,14.4228794 C106.352841,14.4228794 118.037199,9.87066151 118.037199,7.45011676 L49.9830351,7.45011676 C49.9830351,9.87066151 61.667393,14.4228794 84.0101168,14.4228794 Z" id="Path" fill="#8A1740"></path>
                <path d="M84.0101168,17.4112063 C71.4392218,17.4112063 53.6985214,15.5185993 48.4888716,10.5181323 L48.4888716,21.7542413 C48.4888716,26.4359533 64.4266148,30.2311284 84.0101168,30.2311284 C103.593619,30.2311284 119.531362,26.4359533 119.531362,21.7542413 L119.531362,10.5181323 C114.291829,15.5185993 96.5810117,17.4112063 84.0101168,17.4112063 Z" id="Path" fill="#8A1740"></path>
                <path d="M84.0101168,32.9305837 C71.4392218,32.9305837 53.6985214,31.0379767 48.4888716,26.0375098 L48.4888716,37.2736187 C48.4888716,41.9553308 64.4266148,45.7505059 84.0101168,45.7505059 C103.593619,45.7505059 119.531362,41.9553308 119.531362,37.2736187 L119.531362,26.0375098 C114.291829,31.0379767 96.5810117,32.9305837 84.0101168,32.9305837 Z" id="Path" fill="#8A1740"></path>
                <path d="M84.0101168,0.447470847 C61.667393,0.447470847 49.9830351,4.99968875 49.9830351,7.4202335 C49.9830351,9.84077824 61.667393,14.3929961 84.0101168,14.3929961 C106.352841,14.3929961 118.037199,9.84077824 118.037199,7.4202335 C118.037199,4.99968875 106.322957,0.447470847 84.0101168,0.447470847 Z" id="Path" fill="#8A1740"></path>
                <circle id="Oval" fill="#C82044" cx="34.6828016" cy="72.8347082" r="34.2063813"></circle>
                <path d="M43.2792218,59.4669261 L42.5719845,63.7501946 C41.1094929,62.8565285 39.5063951,62.2166365 37.8305059,61.8575876 L36.5953308,69.4977432 C41.8448249,71.2608561 44.3251362,73.4024903 44.3251362,77.9845915 C44.3251362,83.4034242 40.4602335,86.3021012 34.3640467,86.3021012 L34.1548639,86.3021012 L33.3978211,91.282646 L30.499144,90.6550973 C30.499144,90.6550973 31.2163425,86.0729962 31.166537,86.0729962 C29.0047502,85.7790164 26.9072818,85.1258721 24.9607782,84.1405448 L25.6381323,79.7875487 C27.6071072,80.9421687 29.7713364,81.7254779 32.0231907,82.0985215 L33.3181323,73.4024903 C28.2379767,71.6891829 25.6779767,69.8762646 25.6779767,65.3838133 C25.6779767,60.343502 29.3336965,57.5743191 35.1310506,57.5743191 L35.5992218,57.5743191 L36.1072374,54.4266148 L39.0955642,55.0940078 L38.6771985,57.8631907 C40.2779468,58.1825332 41.8266962,58.7222489 43.2792218,59.4669261 Z M34.6031129,61.5189106 C31.614786,61.5189106 30.2401557,62.7839689 30.2401557,64.8359534 C30.2401557,66.6488717 31.1167316,67.6051362 34.055253,68.6610117 L35.1509728,61.5189106 L34.6031129,61.5189106 Z M34.732607,82.3077043 C38.0894942,82.3077043 39.7729183,80.9231129 39.7729183,78.4428016 C39.7729183,76.6000001 39.0158755,75.3847471 35.8582102,74.2491829 L34.6429572,82.3077043 L34.732607,82.3077043 Z" id="Shape" fill="#FFFFFF"></path>
                <path d="M84.0101168,96.183502 C77.3582774,96.1842537 70.7156733,95.6881394 64.1377432,94.6992997 C61.0053218,98.7339544 57.0492939,102.05498 52.533074,104.441245 C58.5097277,107.150662 70.3335409,109.003424 84.0200779,109.003424 C103.633463,109.003424 119.541323,105.208249 119.541323,100.516576 L119.541323,89.2904281 C114.291829,94.3307394 96.5810117,96.183502 84.0101168,96.183502 Z" id="Path" fill="#8A1740"></path>
                <path d="M84.0101168,80.2457588 C80.025681,80.2457588 75.4734631,80.046537 70.9909728,79.6182102 C70.1475638,83.9817746 68.4918685,88.1480446 66.110039,91.9002335 C72.0529346,92.6990279 78.0437043,93.0884279 84.0400001,93.065681 C103.653385,93.065681 119.561245,89.2705059 119.561245,84.5788327 L119.561245,73.3526849 C114.291829,78.3929962 96.5810117,80.2457588 84.0101168,80.2457588 Z" id="Path" fill="#8A1740"></path>
                <path d="M84.0101168,64.3080156 C79.8364203,64.3080156 75.0949417,64.0888717 70.4331518,63.6306615 C71.5618134,67.8486173 71.8995449,72.2391263 71.4292608,76.5800779 C75.3340078,76.9386771 79.5575098,77.1378989 83.9901946,77.1378989 C103.60358,77.1378989 119.51144,73.3427238 119.51144,68.6510506 L119.51144,57.4149417 C114.291829,62.455253 96.5810117,64.3080156 84.0101168,64.3080156 Z" id="Path" fill="#8A1740"></path>
                <path d="M84.0101168,48.5097277 C75.8492974,48.5518298 67.7044225,47.7843897 59.6950973,46.2186771 C64.0826223,50.1314327 67.438766,55.0647245 69.4669261,60.5825681 C74.2946421,61.0893713 79.1459196,61.3387516 84.0001557,61.3296499 C103.613541,61.3296499 119.521401,57.5344748 119.521401,52.8527627 L119.521401,41.6166537 C114.291829,46.6171207 96.5810117,48.5097277 84.0101168,48.5097277 Z" id="Path" fill="#8A1740"></path>
            </g>
        </g>
    </g>
</svg>