<?xml version="1.0" encoding="UTF-8"?>
<svg width="256px" height="256px" viewBox="0 0 256 256" version="1.1" xmlns="http://www.w3.org/2000/svg" xmlns:xlink="http://www.w3.org/1999/xlink">
    <!-- Generator: Sketch 56.3 (81716) - https://sketch.com -->
    <title>Icons/Illustrative/objects/lightbulb-256x256</title>
    <desc>Created with Sketch.</desc>
    <g id="Icons/Illustrative/objects/lightbulb-256x256" stroke="none" stroke-width="1" fill="none" fill-rule="evenodd">
        <g id="Icons/Illustrative/Oval" fill="#F2F3F2">
            <circle id="Oval" cx="128" cy="128" r="128"></circle>
        </g>
        <g id="stay-informed" transform="translate(78.000000, 49.000000)" fill-rule="nonzero">
            <path d="M73.0357143,133.571429 L73.0357143,122.142857 L27.3214286,122.142857 L27.3214286,133.571429 C27.3214286,133.928571 27.3214286,134.464286 27.3214286,134.821429 C27.6785714,147.5 38.2142857,157.5 50.8928571,157.142857 C63.3928571,156.785714 73.3928571,146.25 73.0357143,133.571429 L73.0357143,133.571429 Z" id="Path" fill="#7B003A"></path>
            <g id="Group" fill="#C81943">
                <polygon id="Path" points="54.8214286 67.6785714 45.1785714 67.6785714 45.1785714 67.6785714 45.1785714 118.928571 54.8214286 118.928571"></polygon>
                <path d="M79.8214286,10.3571429 C69.8214286,2.67857143 57.1428571,-0.892857143 44.4642857,0.535714286 C17.8571429,3.57142857 -1.25,27.6785714 1.78571429,54.4642857 C2.85714286,63.2142857 6.07142857,71.4285714 11.4285714,78.3928571 C21.0714286,91.0714286 27.3214286,103.035714 27.3214286,118.928571 L41.9642857,118.928571 L41.9642857,67.6785714 L40.1785714,67.6785714 L35.7142857,67.6785714 C30.5357143,67.6785714 26.25,63.3928571 26.25,58.2142857 C26.25,53.0357143 30.5357143,48.75 35.7142857,48.75 C40.8928571,48.75 45.1785714,53.0357143 45.1785714,58.2142857 L45.1785714,64.4642857 L54.8214286,64.4642857 L54.8214286,58.2142857 C54.8214286,53.0357143 59.1071429,48.75 64.2857143,48.75 C69.4642857,48.75 73.75,53.0357143 73.75,58.2142857 C73.75,63.3928571 69.4642857,67.6785714 64.2857143,67.6785714 L62.8571429,67.6785714 L58.0357143,67.6785714 L58.0357143,118.928571 L73.0357143,118.928571 C73.0357143,103.214286 78.9285714,90.8928571 88.5714286,78.5714286 C105,57.3214286 101.071429,26.7857143 79.8214286,10.3571429 Z" id="Path"></path>
                <path d="M70.5357143,58.2142857 C70.5357143,54.8214286 67.6785714,51.9642857 64.2857143,51.9642857 C60.8928571,51.9642857 58.0357143,54.8214286 58.0357143,58.2142857 L58.0357143,64.4642857 L64.2857143,64.4642857 C67.6785714,64.4642857 70.5357143,61.6071429 70.5357143,58.2142857 Z" id="Path"></path>
                <path d="M29.4642857,58.2142857 C29.4642857,61.6071429 32.3214286,64.4642857 35.7142857,64.4642857 L41.9642857,64.4642857 L41.9642857,58.2142857 C41.9642857,54.8214286 39.1071429,51.9642857 35.7142857,51.9642857 C32.3214286,51.9642857 29.4642857,54.6428571 29.4642857,58.2142857 Z" id="Path"></path>
            </g>
            <path d="M64.2857143,48.75 C59.1071429,48.75 54.8214286,53.0357143 54.8214286,58.2142857 L54.8214286,64.4642857 L45.1785714,64.4642857 L45.1785714,58.2142857 C45.1785714,53.0357143 40.8928571,48.75 35.7142857,48.75 C30.5357143,48.75 26.25,53.0357143 26.25,58.2142857 C26.25,63.3928571 30.5357143,67.6785714 35.7142857,67.6785714 L40.1785714,67.6785714 L41.9642857,67.6785714 L41.9642857,118.928571 L45.1785714,118.928571 L45.1785714,67.6785714 L45.1785714,67.6785714 L54.8214286,67.6785714 L54.8214286,67.6785714 L54.8214286,118.928571 L58.0357143,118.928571 L58.0357143,67.6785714 L62.8571429,67.6785714 L64.2857143,67.6785714 C69.4642857,67.6785714 73.75,63.3928571 73.75,58.2142857 C73.75,53.0357143 69.4642857,48.75 64.2857143,48.75 Z M41.9642857,64.4642857 L35.7142857,64.4642857 C32.3214286,64.4642857 29.4642857,61.6071429 29.4642857,58.2142857 C29.4642857,54.8214286 32.3214286,51.9642857 35.7142857,51.9642857 C39.1071429,51.9642857 41.9642857,54.8214286 41.9642857,58.2142857 L41.9642857,64.4642857 Z M64.2857143,64.4642857 L58.0357143,64.4642857 L58.0357143,58.2142857 C58.0357143,54.8214286 60.8928571,51.9642857 64.2857143,51.9642857 C67.6785714,51.9642857 70.5357143,54.8214286 70.5357143,58.2142857 C70.5357143,61.6071429 67.6785714,64.4642857 64.2857143,64.4642857 Z" id="Shape" fill="#F2F3F2"></path>
        </g>
    </g>
</svg>