<?xml version="1.0" encoding="UTF-8"?>
<svg width="256px" height="256px" viewBox="0 0 256 256" version="1.1" xmlns="http://www.w3.org/2000/svg" xmlns:xlink="http://www.w3.org/1999/xlink">
    <!-- Generator: Sketch 56.3 (81716) - https://sketch.com -->
    <title>Icons/Illustrative/device/merchant-256x256</title>
    <desc>Created with Sketch.</desc>
    <g id="Icons/Illustrative/device/merchant-256x256" stroke="none" stroke-width="1" fill="none" fill-rule="evenodd">
        <g id="Icons/Illustrative/Oval" fill="#F2F3F2">
            <circle id="Oval" cx="128" cy="128" r="128"></circle>
        </g>
        <g id="Group-36" transform="translate(90.000000, 39.000000)">
            <path d="M56.7,-0.0003 L50.26,5.1607 L43.84,-0.0003 L37.43,5.1607 L31.01,-0.0003 L24.6,5.1607 L18.2,-0.0003 L11.79,5.1607 L11.79,49.2097 L63.93,49.2097 L63.93,5.8097 L56.7,-0.0003 Z M19,19.9497 L56.389,19.9497 L56.389,22.9497 L51.71,22.9497 L19,22.9497 L19,19.9497 Z M19,31.5397 L47.8,31.5397 L47.8,34.5397 L42.881,34.5397 L19,34.5397 L19,31.5397 Z" id="Fill-1" fill="#8B1D41"></path>
            <path d="M64.3898,87.8602 L64.3898,91.0602 L10.6798,91.0602 L10.6798,60.5402 L64.3898,60.5402 L64.3898,87.8602 Z M65.6158,106.3052 C65.6158,107.9932 64.2338,109.3752 62.5448,109.3752 L53.5548,109.3752 C51.8668,109.3752 50.4848,107.9932 50.4848,106.3052 L50.4848,101.9152 C50.4848,100.2262 51.8668,98.8452 53.5548,98.8452 L62.5448,98.8452 C64.2338,98.8452 65.6158,100.2262 65.6158,101.9152 L65.6158,106.3052 Z M9.4548,101.9152 C9.4548,100.2262 10.8358,98.8452 12.5248,98.8452 L21.5148,98.8452 C23.2038,98.8452 24.5848,100.2262 24.5848,101.9152 L24.5848,106.3052 C24.5848,107.9932 23.2038,109.3752 21.5148,109.3752 L12.5248,109.3752 C10.8358,109.3752 9.4548,107.9932 9.4548,106.3052 L9.4548,101.9152 Z M31.1898,141.1602 C31.1898,137.6582 34.0288,134.8202 37.5298,134.8202 C41.0318,134.8202 43.8698,137.6582 43.8698,141.1602 C43.8698,144.6612 41.0318,147.5002 37.5298,147.5002 C34.0288,147.5002 31.1898,144.6612 31.1898,141.1602 L31.1898,141.1602 Z M31.1898,123.5002 C31.1898,119.9982 34.0288,117.1602 37.5298,117.1602 C41.0318,117.1602 43.8698,119.9982 43.8698,123.5002 C43.8698,127.0012 41.0318,129.8402 37.5298,129.8402 C34.0288,129.8402 31.1898,127.0012 31.1898,123.5002 L31.1898,123.5002 Z M31.1898,104.5802 C31.1898,101.0782 34.0288,98.2402 37.5298,98.2402 C41.0318,98.2402 43.8698,101.0782 43.8698,104.5802 C43.8698,108.0812 41.0318,110.9202 37.5298,110.9202 C34.0288,110.9202 31.1898,108.0812 31.1898,104.5802 L31.1898,104.5802 Z M10.6798,123.5002 C10.6798,119.9982 13.5188,117.1602 17.0198,117.1602 C20.5218,117.1602 23.3598,119.9982 23.3598,123.5002 C23.3598,127.0012 20.5218,129.8402 17.0198,129.8402 C13.5188,129.8402 10.6798,127.0012 10.6798,123.5002 L10.6798,123.5002 Z M10.6798,141.1602 C10.6798,137.6582 13.5188,134.8202 17.0198,134.8202 C20.5218,134.8202 23.3598,137.6582 23.3598,141.1602 C23.3598,144.6612 20.5218,147.5002 17.0198,147.5002 C13.5188,147.5002 10.6798,144.6612 10.6798,141.1602 L10.6798,141.1602 Z M23.3598,158.8102 C23.3598,162.3112 20.5218,165.1502 17.0198,165.1502 C13.5188,165.1502 10.6798,162.3112 10.6798,158.8102 C10.6798,155.3082 13.5188,152.4702 17.0198,152.4702 C20.5218,152.4702 23.3598,155.3082 23.3598,158.8102 L23.3598,158.8102 Z M43.8698,158.8102 C43.8698,162.3112 41.0318,165.1502 37.5298,165.1502 C34.0288,165.1502 31.1898,162.3112 31.1898,158.8102 C31.1898,155.3082 34.0288,152.4702 37.5298,152.4702 C41.0318,152.4702 43.8698,155.3082 43.8698,158.8102 L43.8698,158.8102 Z M64.3898,158.8102 C64.3898,162.3112 61.5518,165.1502 58.0498,165.1502 C54.5488,165.1502 51.7098,162.3112 51.7098,158.8102 C51.7098,155.3082 54.5488,152.4702 58.0498,152.4702 C61.5518,152.4702 64.3898,155.3082 64.3898,158.8102 L64.3898,158.8102 Z M64.3898,141.1602 C64.3898,144.6612 61.5518,147.5002 58.0498,147.5002 C54.5488,147.5002 51.7098,144.6612 51.7098,141.1602 C51.7098,137.6582 54.5488,134.8202 58.0498,134.8202 C61.5518,134.8202 64.3898,137.6582 64.3898,141.1602 L64.3898,141.1602 Z M58.0498,129.8402 C54.5488,129.8402 51.7098,127.0012 51.7098,123.5002 C51.7098,119.9982 54.5488,117.1602 58.0498,117.1602 C61.5518,117.1602 64.3898,119.9982 64.3898,123.5002 C64.3898,127.0012 61.5518,129.8402 58.0498,129.8402 L58.0498,129.8402 Z M70.7098,49.2102 L63.9298,49.2102 L11.7898,49.2102 L4.9998,49.2102 C2.2388,49.2102 -0.0002,51.4482 -0.0002,54.2102 L-0.0002,172.5402 C-0.0002,175.3012 2.2388,177.5402 4.9998,177.5402 L70.7098,177.5402 C73.4718,177.5402 75.7098,175.3012 75.7098,172.5402 L75.7098,54.2102 C75.7098,51.4482 73.4718,49.2102 70.7098,49.2102 L70.7098,49.2102 Z" id="Fill-2" fill="#C4203F"></path>
            <polygon id="Fill-5" fill="#FFFFFF" points="10.6799 91.0599 64.3899 91.0599 64.3899 87.8599 64.3899 60.5399 10.6799 60.5399"></polygon>
            <path d="M43.8698,104.5799 C43.8698,101.0789 41.0318,98.2399 37.5298,98.2399 C34.0288,98.2399 31.1898,101.0789 31.1898,104.5799 C31.1898,108.0809 34.0288,110.9199 37.5298,110.9199 C41.0318,110.9199 43.8698,108.0809 43.8698,104.5799" id="Fill-7" fill="#FFFFFF"></path>
            <path d="M43.8698,123.4998 C43.8698,119.9988 41.0318,117.1598 37.5298,117.1598 C34.0288,117.1598 31.1898,119.9988 31.1898,123.4998 C31.1898,127.0008 34.0288,129.8398 37.5298,129.8398 C41.0318,129.8398 43.8698,127.0008 43.8698,123.4998" id="Fill-9" fill="#FFFFFF"></path>
            <path d="M58.05,117.16 C54.549,117.16 51.71,119.998 51.71,123.5 C51.71,127.001 54.549,129.84 58.05,129.84 C61.551,129.84 64.39,127.001 64.39,123.5 C64.39,119.998 61.551,117.16 58.05,117.16" id="Fill-11" fill="#FFFFFF"></path>
            <path d="M23.36,123.4998 C23.36,119.9988 20.522,117.1598 17.02,117.1598 C13.519,117.1598 10.68,119.9988 10.68,123.4998 C10.68,127.0008 13.519,129.8398 17.02,129.8398 C20.522,129.8398 23.36,127.0008 23.36,123.4998" id="Fill-13" fill="#FFFFFF"></path>
            <path d="M43.8698,141.16 C43.8698,137.659 41.0318,134.82 37.5298,134.82 C34.0288,134.82 31.1898,137.659 31.1898,141.16 C31.1898,144.661 34.0288,147.5 37.5298,147.5 C41.0318,147.5 43.8698,144.661 43.8698,141.16" id="Fill-15" fill="#FFFFFF"></path>
            <path d="M51.7101,141.16 C51.7101,144.661 54.5481,147.5 58.0501,147.5 C61.5511,147.5 64.3901,144.661 64.3901,141.16 C64.3901,137.659 61.5511,134.82 58.0501,134.82 C54.5481,134.82 51.7101,137.659 51.7101,141.16" id="Fill-17" fill="#FFFFFF"></path>
            <path d="M23.36,141.16 C23.36,137.659 20.522,134.82 17.02,134.82 C13.519,134.82 10.68,137.659 10.68,141.16 C10.68,144.661 13.519,147.5 17.02,147.5 C20.522,147.5 23.36,144.661 23.36,141.16" id="Fill-19" fill="#FFFFFF"></path>
            <path d="M31.1901,158.8099 C31.1901,162.3109 34.0281,165.1499 37.5301,165.1499 C41.0311,165.1499 43.8701,162.3109 43.8701,158.8099 C43.8701,155.3089 41.0311,152.4699 37.5301,152.4699 C34.0281,152.4699 31.1901,155.3089 31.1901,158.8099" id="Fill-21" fill="#FFFFFF"></path>
            <path d="M51.7101,158.8099 C51.7101,162.3109 54.5481,165.1499 58.0501,165.1499 C61.5511,165.1499 64.3901,162.3109 64.3901,158.8099 C64.3901,155.3089 61.5511,152.4699 58.0501,152.4699 C54.5481,152.4699 51.7101,155.3089 51.7101,158.8099" id="Fill-23" fill="#FFFFFF"></path>
            <path d="M10.6799,158.8099 C10.6799,162.3109 13.5189,165.1499 17.0199,165.1499 C20.5219,165.1499 23.3599,162.3109 23.3599,158.8099 C23.3599,155.3089 20.5219,152.4699 17.0199,152.4699 C13.5189,152.4699 10.6799,155.3089 10.6799,158.8099" id="Fill-25" fill="#FFFFFF"></path>
            <polygon id="Fill-27" fill="#FFFFFF" points="56.3898 22.95 56.3898 19.95 18.9998 19.95 18.9998 22.95 51.7098 22.95"></polygon>
            <polygon id="Fill-29" fill="#FFFFFF" points="47.8 34.5399 47.8 31.5399 19 31.5399 19 34.5399 42.88 34.5399"></polygon>
            <path d="M12.5246,109.3748 L21.5156,109.3748 C23.2036,109.3748 24.5856,107.9938 24.5856,106.3048 L24.5856,101.9148 C24.5856,100.2268 23.2036,98.8448 21.5156,98.8448 L12.5246,98.8448 C10.8366,98.8448 9.4546,100.2268 9.4546,101.9148 L9.4546,106.3048 C9.4546,107.9938 10.8366,109.3748 12.5246,109.3748" id="Fill-31" fill="#FFFFFF"></path>
            <path d="M62.5451,98.8451 L53.5551,98.8451 C51.8661,98.8451 50.4841,100.2261 50.4841,101.9151 L50.4841,106.3051 C50.4841,107.9931 51.8661,109.3751 53.5551,109.3751 L62.5451,109.3751 C64.2331,109.3751 65.6151,107.9931 65.6151,106.3051 L65.6151,101.9151 C65.6151,100.2261 64.2331,98.8451 62.5451,98.8451" id="Fill-33" fill="#FFFFFF"></path>
        </g>
    </g>
</svg>