<svg width="256" height="256" viewBox="0 0 256 256" fill="none" xmlns="http://www.w3.org/2000/svg">
<circle cx="128" cy="128" r="128" fill="#F2F3F2"/>
<path d="M173.198 82.7652L174.951 83.0971C175.274 83.1582 175.486 83.4707 175.424 83.795L172.088 101.413C172.027 101.737 171.715 101.951 171.392 101.89L169.639 101.558L173.198 82.7652Z" fill="#8B1D41"/>
<path d="M168.749 106.256L170.503 106.588C170.826 106.649 171.038 106.961 170.976 107.286L169.419 115.507C169.358 115.832 169.046 116.045 168.724 115.984L166.97 115.652L168.749 106.256Z" fill="#8B1D41"/>
<path d="M102.221 54.7296C103.203 49.5402 108.187 46.1259 113.352 47.1036L169.463 57.7255C174.628 58.7033 178.018 63.7027 177.036 68.8921L154.794 186.345C153.812 191.534 148.828 194.949 143.663 193.971L87.5519 183.349C82.387 182.371 78.9966 177.372 79.9793 172.182L102.221 54.7296Z" fill="white"/>
<path fill-rule="evenodd" clip-rule="evenodd" d="M168.796 61.2491L112.685 50.6272C109.457 50.0162 106.342 52.1501 105.728 55.3934L83.4863 172.846C82.8721 176.09 84.991 179.214 88.2191 179.825L144.33 190.447C147.558 191.058 150.673 188.925 151.287 185.681L173.529 68.2282C174.143 64.9849 172.024 61.8602 168.796 61.2491ZM113.352 47.1036C108.187 46.1259 103.203 49.5402 102.221 54.7296L79.9793 172.182C78.9966 177.372 82.387 182.371 87.5519 183.349L143.663 193.971C148.828 194.949 153.812 191.534 154.794 186.345L177.036 68.8921C178.018 63.7027 174.628 58.7033 169.463 57.7255L113.352 47.1036Z" fill="#C41F3E"/>
<path d="M178.667 108.759H77.3333V185.236" fill="#C41F3E"/>
<path d="M77.3333 185.236L128 202.667L178.667 185.236V108.759L77.3333 185.236Z" fill="#8B1D41"/>
<path d="M141.62 65.2904L129.961 63.5473C129.308 63.4383 128.981 62.7847 129.09 62.131C129.199 61.5863 129.743 61.1505 130.288 61.2595L141.947 63.0026C142.601 63.1115 142.928 63.7652 142.819 64.4188C142.71 64.9635 142.165 65.3993 141.62 65.2904" fill="white"/>
</svg>
