<?xml version="1.0" encoding="UTF-8"?>
<svg width="256px" height="256px" viewBox="0 0 256 256" version="1.1" xmlns="http://www.w3.org/2000/svg" xmlns:xlink="http://www.w3.org/1999/xlink">
    <!-- Generator: Sketch 56.3 (81716) - https://sketch.com -->
    <title>Icons/Illustrative/currency/money-transfer-256x256</title>
    <desc>Created with Sketch.</desc>
    <g id="Icons/Illustrative/currency/money-transfer-256x256" stroke="none" stroke-width="1" fill="none" fill-rule="evenodd">
        <g id="Icons/Illustrative/Oval" fill="#F2F3F2">
            <circle id="Oval" cx="128" cy="128" r="128"></circle>
        </g>
        <g id="Group" transform="translate(54.000000, 44.000000)" fill-rule="nonzero">
            <g id="Layer_1">
                <path d="M10.05,138.63 C6.80154942,134.185046 5.4865813,128.616269 6.40357889,123.187719 C7.32057647,117.759168 10.3917583,112.931305 14.92,109.8 L11.5,104.88 C5.49583418,109.035727 1.4819198,115.493467 0.413186257,122.716893 C-0.655547291,129.940319 1.31643894,137.283696 5.86000002,143 L2.86000002,146.11 L13.16,145.86 L13,135.57 L10.05,138.63 Z" id="Path" fill="#7B143C"></path>
                <path d="M142.14,110.19 L145.14,107.08 L134.83,107.34 L135.09,117.64 L137.99,114.64 C141.237958,119.083348 142.552686,124.650573 141.635643,130.077506 C140.718601,135.504439 137.647606,140.330566 133.12,143.46 L136.54,148.39 C142.55086,144.232343 146.569179,137.768887 147.638056,130.538807 C148.706933,123.308727 146.730712,115.959054 142.18,110.24 L142.14,110.19 Z" id="Path" fill="#7B143C"></path>
                <path d="M51.005,74.425 L96.995,74.425 C98.6518542,74.425 99.995,75.7681458 99.995,77.425 L99.995,175.605 C99.995,177.261854 98.6518542,178.605 96.995,178.605 L51.005,178.605 C49.3481458,178.605 48.005,177.261854 48.005,175.605 L48.005,77.425 C48.005,75.7681458 49.3481458,74.425 51.005,74.425 Z" id="Rectangle" fill="#C4203F" transform="translate(74.000000, 126.515000) rotate(90.000000) translate(-74.000000, -126.515000) "></path>
                <path d="M123.09,100.53 C124.746854,100.53 126.09,101.873146 126.09,103.53 L126.09,149.53 C126.09,151.186854 124.746854,152.53 123.09,152.53 L24.91,152.53 C23.2531458,152.53 21.91,151.186854 21.91,149.53 L21.91,103.53 C21.91,101.873146 23.2531458,100.53 24.91,100.53 L123.09,100.53" id="Path" fill="#C4203F"></path>
                <ellipse id="Oval" fill="#FFFFFF" cx="74" cy="126.52" rx="25.73" ry="19.52"></ellipse>
                <path d="M80.8300001,115.85 L80.2600001,119.29 C79.0942155,118.586398 77.8205012,118.079615 76.4900001,117.79 L75.5500001,123.87 C79.7300001,125.27 81.7000001,126.98 81.7000001,130.62 C81.7000001,134.93 78.6300001,137.23 73.78,137.23 L73.62,137.23 L73.01,141.17 L70.71,140.67 C70.71,140.67 71.28,137.03 71.24,137.03 C69.5212617,136.791252 67.852806,136.274504 66.3,135.5 L66.83,132.05 C68.3957945,132.970467 70.1179358,133.594235 71.91,133.89 L72.91,126.98 C68.91,125.61 66.83,124.17 66.83,120.6 C66.83,116.6 69.73,114.38 74.3400001,114.38 L74.6800001,114.38 L75.0800001,111.88 L77.4200001,112.41 L77.0800001,114.62 C78.3832254,114.845209 79.6465631,115.259583 80.8300001,115.85 L80.8300001,115.85 Z M74,117.52 C71.66,117.52 70.53,118.52 70.53,120.16 C70.53,121.6 71.23,122.36 73.53,123.16 L74.3900001,117.48 L74,117.52 Z M74.1000001,134.06 C76.7700001,134.06 78.1000001,132.96 78.1000001,130.99 C78.1000001,129.52 77.5000001,128.55 74.99,127.64 L73.99,134.06 L74.1000001,134.06 Z" id="Shape" fill="#8B1D41"></path>
                <path d="M106.23,61.24 L75.5000001,61.24 L75.5000001,83.36 C84.132597,83.4878319 92.6974565,84.9068818 100.91,87.5700001 C104.284383,79.1942579 106.087779,70.2688036 106.23,61.24 Z" id="Path" fill="#8B1D41"></path>
                <path d="M70.55,0.0800000172 C54.7103798,0.973574405 39.8798229,8.1423367 29.34,20 C34.3590994,23.3494714 39.7650557,26.0793114 45.44,28.13 C51,16.05 59.64,6.13000002 70.55,0.0800000172 Z" id="Path" fill="#8B1D41"></path>
                <path d="M44.25,88.5600001 C40.7731631,79.8639151 38.919215,70.6043424 38.78,61.24 L14.27,61.24 C14.5782137,74.3282651 19.1930986,86.9497821 27.4,97.1500001 C32.6468366,93.6127603 38.3052178,90.7281612 44.25,88.5600001 Z" id="Path" fill="#8B1D41"></path>
                <path d="M44.25,30.92 C38.3052178,28.7518389 32.6468366,25.8672397 27.4,22.33 C19.1930986,32.530218 14.5782137,45.151735 14.27,58.24 L38.78,58.24 C38.919215,48.8756577 40.7731631,39.6160849 44.25,30.92 L44.25,30.92 Z" id="Path" fill="#8B1D41"></path>
                <path d="M102.56,28.17 C108.236851,26.1067023 113.642886,23.363391 118.66,20 C108.136651,8.10904414 93.3026939,0.909841608 77.4500001,1.71875172e-08 C88.3600001,6.13000002 97.0500001,16.05 102.56,28.17 Z" id="Path" fill="#8B1D41"></path>
                <path d="M99.7200001,90.3300001 C91.8870265,87.8140047 83.7260051,86.4661895 75.5000001,86.3300001 L75.5000001,97.5000001 L95.8300001,97.5000001 C97.2748022,95.1933913 98.5740023,92.7987216 99.7200001,90.3300001 Z" id="Path" fill="#8B1D41"></path>
                <path d="M109.23,58.24 L133.73,58.24 C133.421786,45.151735 128.806902,32.530218 120.6,22.33 C115.353164,25.8672397 109.694782,28.7518389 103.75,30.92 C107.23026,39.6154391 109.087602,48.8750338 109.23,58.24 L109.23,58.24 Z" id="Path" fill="#8B1D41"></path>
                <path d="M72.5,86.3600001 C64.273995,86.4961895 56.1129736,87.8440047 48.28,90.3600001 C49.4248783,92.8389593 50.7240949,95.243679 52.17,97.5600001 L72.5,97.5600001 L72.5,86.3600001 Z" id="Path" fill="#8B1D41"></path>
                <path d="M72.5,2.42000002 C62,8.09000002 53.63,17.54 48.28,29.15 C56.1129736,31.6659953 64.273995,33.0138106 72.5,33.15 L72.5,2.42000002 Z" id="Path" fill="#8B1D41"></path>
                <path d="M75.5000001,2.42000002 L75.5000001,33.12 C83.7260051,32.9838106 91.8870265,31.6359953 99.7200001,29.12 C94.3800001,17.54 86.0000001,8.09000002 75.5000001,2.42000002 Z" id="Path" fill="#8B1D41"></path>
                <path d="M100.91,31.91 C92.6974565,34.5731183 84.132597,35.9921682 75.5000001,36.12 L75.5000001,58.24 L106.23,58.24 C106.087779,49.2111965 104.284383,40.2857422 100.91,31.91 L100.91,31.91 Z" id="Path" fill="#8B1D41"></path>
                <path d="M102.56,91.3100001 C101.593516,93.4387169 100.515349,95.5149383 99.3300001,97.5300001 L115.63,97.5300001 C111.483471,95.0412267 107.106534,92.9582468 102.56,91.3100001 L102.56,91.3100001 Z" id="Path" fill="#8B1D41"></path>
                <path d="M72.5,36.12 C63.8674031,35.9921682 55.3025436,34.5731183 47.09,31.91 C43.7204266,40.287183 41.9172126,49.2117362 41.77,58.24 L72.5,58.24 L72.5,36.12 Z" id="Path" fill="#8B1D41"></path>
                <path d="M103.75,88.5600001 C109.694782,90.7281612 115.353164,93.6127603 120.6,97.1500001 C128.806902,86.9497821 133.421786,74.3282651 133.73,61.24 L109.23,61.24 C109.087602,70.6049662 107.23026,79.864561 103.75,88.5600001 Z" id="Path" fill="#8B1D41"></path>
                <path d="M47.09,87.5700001 C55.3025436,84.9068818 63.8674031,83.4878319 72.5,83.36 L72.5,61.24 L41.77,61.24 C41.9172126,70.2682639 43.7204266,79.1928171 47.09,87.5700001 L47.09,87.5700001 Z" id="Path" fill="#8B1D41"></path>
                <path d="M45.44,91.3100001 C40.8943023,92.9602476 36.5175537,95.0431379 32.37,97.5300001 L48.67,97.5300001 C47.4885254,95.5127969 46.4104648,93.4367791 45.44,91.3100001 L45.44,91.3100001 Z" id="Path" fill="#8B1D41"></path>
            </g>
        </g>
    </g>
</svg>