<svg width="256" height="256" viewBox="0 0 256 256" fill="none" xmlns="http://www.w3.org/2000/svg">
<circle cx="128" cy="128" r="128" fill="#F2F3F2"/>
<path d="M170.626 75.5862H172.656C173.03 75.5862 173.333 75.895 173.333 76.2758V96.9655C173.333 97.3464 173.03 97.6552 172.656 97.6552H170.626V75.5862Z" fill="#8B1D41"/>
<path d="M170.626 103.172H172.656C173.03 103.172 173.333 103.481 173.333 103.862V113.517C173.333 113.898 173.03 114.207 172.656 114.207H170.626V103.172Z" fill="#8B1D41"/>
<path d="M85.3333 59.0345C85.3333 52.9403 90.1824 48 96.1641 48H161.149C167.13 48 171.979 52.9403 171.979 59.0345V196.966C171.979 203.06 167.13 208 161.149 208H96.1641C90.1824 208 85.3333 203.06 85.3333 196.966V59.0345Z" fill="white"/>
<path fill-rule="evenodd" clip-rule="evenodd" d="M161.149 52.1379H96.1641C92.4256 52.1379 89.3949 55.2256 89.3949 59.0345V196.966C89.3949 200.774 92.4256 203.862 96.1641 203.862H161.149C164.887 203.862 167.918 200.774 167.918 196.966V59.0345C167.918 55.2256 164.887 52.1379 161.149 52.1379ZM96.1641 48C90.1824 48 85.3333 52.9403 85.3333 59.0345V196.966C85.3333 203.06 90.1824 208 96.1641 208H161.149C167.13 208 171.979 203.06 171.979 196.966V59.0345C171.979 52.9403 167.13 48 161.149 48H96.1641Z" fill="#C41F3E"/>
<path fill-rule="evenodd" clip-rule="evenodd" d="M104 150.741V178.667H116.004V174.901V150.741H104Z" fill="#8B1D41"/>
<path fill-rule="evenodd" clip-rule="evenodd" d="M122.004 118.285V178.666H134.001V175.773V118.285H122.004Z" fill="#C41F3E"/>
<path fill-rule="evenodd" clip-rule="evenodd" d="M140.003 88V178.666H152V172.993V88H140.003Z" fill="#8B1D41"/>
</svg>
