<?xml version="1.0" encoding="UTF-8"?>
<svg width="256px" height="256px" viewBox="0 0 256 256" version="1.1" xmlns="http://www.w3.org/2000/svg" xmlns:xlink="http://www.w3.org/1999/xlink">
    <!-- Generator: Sketch 56.3 (81716) - https://sketch.com -->
    <title>Icons/Illustrative/objects/star-256x256</title>
    <desc>Created with Sketch.</desc>
    <g id="Icons/Illustrative/objects/star-256x256" stroke="none" stroke-width="1" fill="none" fill-rule="evenodd">
        <g id="Icons/Illustrative/Oval" fill="#F2F3F2">
            <circle id="Oval" cx="128" cy="128" r="128"></circle>
        </g>
        <path d="M197.9034,122.3416 C200.8734,119.3716 201.8634,115.4126 200.8734,111.4526 C199.8824,107.4936 195.9244,104.5236 191.9644,104.5236 L159.2984,99.5746 C155.3394,98.5846 152.3694,96.6046 151.3794,93.6346 L136.5314,63.9386 C134.5504,59.9796 131.5824,57.9996 127.6224,57.9996 L126.6324,57.9996 L126.6324,58.0636 C123.1694,58.3746 120.5224,60.3206 118.7134,63.9386 L103.8644,93.6346 C101.8854,96.6046 98.9154,98.5846 95.9454,99.5746 L63.2794,104.5236 C59.3204,105.5136 55.3614,107.4936 54.3714,111.4526 C53.3814,115.4126 54.3714,119.3716 57.3414,122.3416 L80.1084,145.1086 C83.0774,148.0786 84.0674,151.0486 83.0774,155.0076 L77.1384,186.6836 C77.1384,188.6636 77.1384,191.6336 78.1284,193.6126 C81.0974,198.5616 87.0374,201.5316 92.9764,198.5616 L121.6834,183.7146 C123.6624,182.7236 124.6524,182.7236 126.6324,182.7236 C128.6124,182.7236 129.6014,182.7236 131.5824,183.7146 L160.2884,198.5616 C162.2674,199.5516 165.2374,199.5516 167.2164,199.5516 C173.1564,198.5616 177.1164,192.6236 176.1264,186.6836 L170.1864,154.0176 C169.1974,151.0486 171.1764,147.0886 173.1564,145.1086 L197.9034,122.3416 Z" id="Fill-1" fill="#8B1D41"></path>
        <path d="M127.7247,58.0062 C127.6897,58.0062 127.6577,57.9992 127.6217,57.9992 L126.6327,57.9992 L126.6327,58.0642 C123.1687,58.3752 120.5227,60.3202 118.7137,63.9392 L103.8647,93.6352 C101.8857,96.6052 98.9157,98.5852 95.9467,99.5742 L63.2807,104.5242 C59.3207,105.5142 55.3607,107.4932 54.3707,111.4532 C53.3817,115.4122 54.3707,119.3722 57.3407,122.3412 L80.1077,145.1092 C83.0777,148.0782 84.0677,151.0482 83.0777,155.0072 L77.1387,186.6842 C77.1387,188.6632 77.1387,191.6332 78.1287,193.6122 C81.0977,198.5622 87.0367,201.5312 92.9767,198.5622 L121.6827,183.7142 C123.6627,182.7242 124.6527,182.7242 126.6327,182.7242 C127.0337,182.7242 127.3877,182.7262 127.7247,182.7352 L127.7247,58.0062 Z" id="Fill-4" fill="#C41F3E"></path>
    </g>
</svg>