<?xml version="1.0" encoding="UTF-8"?>
<svg width="450px" height="250px" viewBox="0 0 450 250" version="1.1" xmlns="http://www.w3.org/2000/svg" xmlns:xlink="http://www.w3.org/1999/xlink">
    <!-- Generator: Sketch 62 (91390) - https://sketch.com -->
    <title>Illustrations/Teal/Device/calculator-with-pen-and-notepad-450x250</title>
    <desc>Created with Sketch.</desc>
    <g id="Illustrations/Teal/Device/calculator-with-pen-and-notepad-450x250" stroke="none" stroke-width="1" fill="none" fill-rule="evenodd">
        <path d="M238.859621,55.3854042 C239.060713,53.8915224 240.445711,52.8344134 241.937455,53.0363331 L241.937455,53.0363331 L242.260927,53.0800643 C243.752132,53.2814442 244.807728,54.6689672 244.606636,56.1623092 L244.606636,56.1623092 L243.927885,61.1951846 L257.649557,63.0502544 L258.328309,58.0173789 C258.52994,56.5234971 259.914399,55.4663881 261.406682,55.6683078 L261.406682,55.6683078 L261.729615,55.712039 C263.22082,55.9134188 264.276416,57.3009419 264.074785,58.7942838 L264.074785,58.7942838 L263.396573,63.8271593 L277.050316,65.672511 L277.72799,60.6401754 C277.92962,59.1462936 279.315158,58.0891846 280.806363,58.2911043 L280.806363,58.2911043 L281.129834,58.3348355 C282.621578,58.5362153 283.677175,59.9231985 283.475544,61.4170803 L283.475544,61.4170803 L282.796792,66.4494159 L296.548116,68.3088048 L297.22579,63.2759293 C297.42742,61.7825874 298.812419,60.7254784 300.303624,60.9273981 L300.303624,60.9273981 L300.627095,60.9711293 C302.119379,61.1725092 303.174975,62.5594923 302.973344,64.0533742 L302.973344,64.0533742 L302.294592,69.0851698 L316.045377,70.9440188 L316.72359,65.9122231 C316.925221,64.4178014 318.310219,63.3606924 319.801963,63.5626121 L319.801963,63.5626121 L320.124896,63.6068833 C321.61664,63.8082631 322.672236,65.1952462 322.470605,66.6891281 L322.470605,66.6891281 L321.792393,71.7214637 L328.19929,72.5874508 C331.417834,73.022604 333.695615,76.0157666 333.261084,79.2389232 L333.261084,79.2389232 L320.446211,172.788212 L361.589125,120.320404 L358.767373,118.101447 L338.24255,144.274883 C337.631188,145.055027 336.502811,145.19108 335.723783,144.578302 C334.944216,143.964984 334.808358,142.83607 335.420798,142.055386 L335.420798,142.055386 L358.161402,113.055614 L364.685828,118.18675 L364.844868,118.312005 L367.369026,115.092627 C368.417075,113.755854 370.34874,113.5237 371.683601,114.572711 L371.683601,114.572711 L372.824917,115.470552 C374.159777,116.520102 374.391599,118.454536 373.344089,119.790769 L373.344089,119.790769 L370.819392,123.010147 L371.858815,123.827544 L317.689692,192.905676 L313.308267,224.889433 C312.874276,228.112589 309.884858,230.393094 306.666313,229.958481 L306.666313,229.958481 L210.114841,216.905506 C206.896297,216.470353 204.619056,213.47719 205.053047,210.254034 L205.053047,210.254034 L225.005864,64.6040642 C225.440395,61.3809076 228.429274,59.0998628 231.648357,59.535016 L231.648357,59.535016 L238.181409,60.4182797 Z M158.713475,23.221257 C160.391101,22.7803562 162.085961,23.0555129 163.484072,23.8528176 C164.936579,24.6804545 166.069178,26.0719461 166.524265,27.8247164 L166.524265,27.8247164 L195.790896,140.58862 C196.683835,144.029163 194.6346,147.546078 191.213643,148.444129 L191.213643,148.444129 L121.286525,166.801635 C119.796858,167.192704 118.293188,167.021544 116.995788,166.420857 C115.314392,165.641969 113.979831,164.140523 113.475735,162.198176 L113.475735,162.198176 L84.2091036,49.4342726 C83.3161649,45.9937297 85.3654,42.4768145 88.786357,41.5787635 L88.786357,41.5787635 Z" id="Shadow" fill="#BBE3E2"></path>
        <g id="Art" transform="translate(77.000000, 19.000000)">
            <g id="Group-67" transform="translate(0.000000, 0.011604)">
                <path d="M79.7842244,1.13391916 L33.2678744,143.44856 C34.5655189,144.048176 36.0706356,144.218491 37.5606633,143.8292 L107.529997,125.503851 C110.953019,124.607399 113.00403,121.097289 112.110013,117.662334 L82.8262522,5.09928399 C82.3708911,3.34909501 81.2376078,1.96062257 79.7842244,1.13391916" id="Fill-7" fill="#8B1D41"></path>
                <path d="M75.0102617,0.503699738 L5.04092833,18.8285081 C1.61790611,19.7249596 -0.432566111,23.2356105 0.460911667,26.6700252 L29.7452117,139.233075 C30.2496117,141.171962 31.5849783,142.670734 33.2679283,143.448235 L79.7842783,1.13413543 C78.3847839,0.338250919 76.6894394,0.0641249344 75.0102617,0.503699738" id="Fill-9" fill="#C41F3E"></path>
                <path d="M79.7660639,63.9076882 L79.7660639,63.9076882 C75.9836028,64.8982184 72.1176139,62.6251895 71.1303694,58.8301396 C70.143125,55.0356304 72.4086139,51.1567748 76.191075,50.1657039 C79.9729972,49.1751738 83.839525,51.4487433 84.8267694,55.2432525 C85.8140139,59.0383024 83.5479861,62.917158 79.7660639,63.9076882" id="Fill-11" fill="#C41F3E"></path>
                <path d="M84.4392544,81.8711585 L84.4392544,81.8711585 C80.6573322,82.8616887 76.7908044,80.5881192 75.8040989,76.79361 C74.8168544,72.9991008 77.0823433,69.1197045 80.8642656,68.1291743 C84.6461878,67.1386441 88.5127156,69.4122136 89.49996,73.2067228 C90.4872044,77.001232 88.2217156,80.8806283 84.4392544,81.8711585" id="Fill-13" fill="#C41F3E"></path>
                <path d="M89.1127144,99.8345748 L89.1127144,99.8345748 C85.3307922,100.825105 81.4642644,98.5520761 80.47702,94.7570262 C79.4897756,90.9625171 81.7558033,87.0831207 85.5377256,86.0925906 C89.3196478,85.1020604 93.1861756,87.3756299 94.17342,91.1701391 C95.1606644,94.9646483 92.8951756,98.8440446 89.1127144,99.8345748" id="Fill-15" fill="#C41F3E"></path>
                <path d="M93.7861206,117.797991 L93.7861206,117.797991 C90.0036594,118.788521 86.1376706,116.515492 85.1504261,112.720443 C84.1631817,108.925933 86.4292094,105.047078 90.2111317,104.056007 C93.9930539,103.065477 97.8595817,105.339046 98.8468261,109.133555 C99.8340706,112.928065 97.5680428,116.807461 93.7861206,117.797991" id="Fill-17" fill="#C41F3E"></path>
                <path d="M31.7781161,76.4754184 L31.7781161,76.4754184 C27.9961939,77.4659486 24.1296661,75.1929197 23.1424217,71.3978698 C22.1551772,67.6033606 24.421205,63.724505 28.2031272,62.7334341 C31.9850494,61.7429039 35.8515772,64.0164735 36.8388217,67.8109827 C37.8260661,71.6054919 35.5605772,75.4848882 31.7781161,76.4754184" id="Fill-19" fill="#FFFFFF"></path>
                <path d="M55.77209,70.1915533 L55.77209,70.1915533 C51.9896289,71.1820835 48.12364,68.9085139 47.1363956,65.1140047 C46.1491511,61.3194955 48.41464,57.4400992 52.1971011,56.449569 C55.9790233,55.4590388 59.8455511,57.7326084 60.8327956,61.5271176 C61.82004,65.3216268 59.5540122,69.2010231 55.77209,70.1915533" id="Fill-21" fill="#FFFFFF"></path>
                <polygon id="Fill-23" fill="#FFFFFF" points="85.8209656 40.4283921 15.0583878 58.9608226 6.10528778 24.5485496 76.8684044 6.01611916"></polygon>
                <path d="M36.4513067,94.4388346 L36.4513067,94.4388346 C32.6688456,95.4293648 28.8028567,93.156336 27.8156122,89.3612861 C26.8283678,85.5667769 29.0943956,81.6879213 32.8763178,80.6968504 C36.65824,79.7063202 40.5247678,81.9798898 41.5120122,85.774399 C42.4992567,89.5694488 40.2337678,93.4483045 36.4513067,94.4388346" id="Fill-25" fill="#FFFFFF"></path>
                <path d="M60.4452806,88.1549696 L60.4452806,88.1549696 C56.6633583,89.1454997 52.7968306,86.8724709 51.8095861,83.077421 C50.8223417,79.2829118 53.0883694,75.4035155 56.8702917,74.4129853 C60.6522139,73.4224551 64.5187417,75.6960247 65.5059861,79.4905339 C66.4932306,83.285043 64.2277417,87.1644394 60.4452806,88.1549696" id="Fill-27" fill="#FFFFFF"></path>
                <path d="M41.1247667,112.402521 L41.1247667,112.402521 C37.3423056,113.393051 33.4763167,111.119482 32.4890722,107.324973 C31.5018278,103.530464 33.7673167,99.6510672 37.5497778,98.660537 C41.3317,97.6700068 45.1982278,99.9435764 46.1854722,103.738086 C47.1727167,107.532595 44.9066889,111.411991 41.1247667,112.402521" id="Fill-29" fill="#FFFFFF"></path>
                <path d="M65.1187406,106.11844 L65.1187406,106.11844 C61.3362794,107.10897 57.4702906,104.835941 56.4830461,101.040891 C55.4958017,97.2463822 57.7618294,93.3675265 61.5437517,92.3764556 C65.3256739,91.3859255 69.1922017,93.659495 70.1794461,97.4540042 C71.1666906,101.249054 68.9012017,105.12791 65.1187406,106.11844" id="Fill-31" fill="#FFFFFF"></path>
                <path d="M69.7921467,124.081856 L45.7981189,130.365667 C42.0161967,131.356197 38.1496689,129.083169 37.1624244,125.288119 C36.17518,121.493609 38.4406689,117.614213 42.22313,116.624764 L66.2171578,110.339872 C69.99908,109.349342 73.8656078,111.623452 74.8528522,115.417961 C75.8400967,119.21193 73.5740689,123.091326 69.7921467,124.081856" id="Fill-33" fill="#FFFFFF"></path>
                <polygon id="Fill-35" fill="#FFFFFF" points="78.4862028 57.3057396 79.2185528 60.1205323 78.4129139 60.3313984 77.6805639 57.5166058 74.9166028 58.2405795 74.7209861 57.4879496 77.4849472 56.7645165 76.7525972 53.9491832 77.5576972 53.7383171 78.2905861 56.5531097 81.0405361 55.8329207 81.2361528 56.5855507"></polygon>
                <polygon id="Fill-37" fill="#FFFFFF" points="79.6358144 76.2367612 79.4181033 75.4008661 85.6675978 73.7636798 85.8853089 74.6001155"></polygon>
                <path d="M89.3813506,113.696428 L89.1636394,112.860533 L95.4136728,111.223888 L95.630845,112.059783 L89.3813506,113.696428 Z M88.583795,110.630759 L88.3660839,109.794864 L94.6155783,108.157678 L94.8332894,108.994113 L88.583795,110.630759 Z" id="Fill-39" fill="#FFFFFF"></path>
                <path d="M87.6347039,96.2911045 L87.3086761,95.0367213 L88.3638206,94.7604325 L88.6898483,96.0148157 L87.6347039,96.2911045 Z M86.300415,91.1632724 L85.9743872,89.9088892 L87.0295317,89.6326005 L87.3555594,90.886443 L86.300415,91.1632724 Z M84.263415,94.1673039 L84.0677983,93.414674 L90.3868094,91.7596451 L90.582965,92.5122751 L84.263415,94.1673039 Z" id="Fill-41" fill="#FFFFFF"></path>
                <path d="M219.720897,56.4363764 C221.219008,56.6391323 222.597486,55.5853423 222.799569,54.0822451 C223.002192,52.5786073 221.951358,51.1955417 220.453247,50.9927858 L210.878808,49.6962294 C209.380697,49.4929328 208.002219,50.5472635 207.799597,52.0503606 C207.597514,53.5534577 208.648347,54.9365234 210.146458,55.1398199 L219.720897,56.4363764 M239.161314,59.0694997 C240.659425,59.2722556 242.037903,58.2184656 242.239986,56.7153685 C242.442608,55.2117307 241.391775,53.8286651 239.894203,53.6259092 L230.319225,52.3288121 C228.821114,52.1260562 227.442636,53.1803869 227.240553,54.683484 C227.037931,56.1865811 228.088764,57.5696467 229.587414,57.7729433 L239.161314,59.0694997 M200.280481,53.803253 C201.778592,54.0060089 203.157069,52.9522189 203.359153,51.4491218 C203.561775,49.945484 202.510403,48.5624184 201.012831,48.3596625 L191.438392,47.0625654 C189.939742,46.8598094 188.561803,47.9141402 188.359181,49.4172373 C188.157097,50.9203344 189.207931,52.3034 190.706042,52.5061559 L200.280481,53.803253 M180.840064,51.1701297 C182.338175,51.3728856 183.716114,50.3190955 183.918197,48.8159984 C184.120819,47.3123606 183.069986,45.929295 181.572414,45.7265391 L171.997436,44.429442 C170.499325,44.2266861 169.121386,45.2810168 168.918764,46.7841139 C168.716681,48.287211 169.767514,49.6702766 171.265625,49.8735732 L180.840064,51.1701297 M161.399108,48.5370063 C162.977514,48.7505759 164.422814,47.5697255 164.500414,45.9379459 C164.569392,44.4910798 163.422097,43.2680562 161.991886,43.0744919 L152.557019,41.7968593 C151.058908,41.5935627 149.680431,42.6478934 149.478347,44.1509906 C149.275725,45.6540877 150.326558,47.0371533 151.824669,47.2404499 L161.399108,48.5370063 M223.673108,205.940471 L127.162958,192.868392 C123.945792,192.432602 121.668986,189.435059 122.103331,186.207185 L142.047608,40.3440457 C142.481953,37.1161717 145.469553,34.8317885 148.687258,35.2675785 L245.196331,48.3391165 C248.414036,48.7749066 250.690842,51.7724499 250.256497,55.0003239 L230.312219,200.864004 C229.878414,204.091878 226.890275,206.37572 223.673108,205.940471" id="Fill-43" fill="#C41F3E"></path>
                <path d="M156.8393,47.0552121 L156.515967,47.0114168 C155.024861,46.8097423 153.969717,45.4207291 154.171261,43.9246609 L155.895167,31.1121097 C156.096172,29.6160415 157.480578,28.5573853 158.971683,28.7596005 L159.295556,28.8033958 C160.785583,29.0050703 161.840728,30.3946241 161.639722,31.8901517 L159.915817,44.7027029 C159.714272,46.1987711 158.330406,47.2574273 156.8393,47.0552121" id="Fill-45" fill="#8B1D41"></path>
                <path d="M176.299817,49.6910388 L175.975945,49.6472436 C174.485917,49.445569 173.430773,48.0565559 173.631778,46.5604877 L175.355684,33.7479365 C175.557228,32.2518682 176.941095,31.1932121 178.432739,31.3954273 L178.755534,31.4392226 C180.246101,31.6408971 181.301245,33.0304509 181.099701,34.5259785 L179.376334,47.3385297 C179.175328,48.8345979 177.790923,49.8932541 176.299817,49.6910388" id="Fill-47" fill="#8B1D41"></path>
                <path d="M195.691411,52.3176199 L195.368077,52.2738247 C193.877511,52.0721501 192.822366,50.6825963 193.023372,49.1870688 L194.747277,36.3745176 C194.948822,34.8784493 196.333227,33.8197932 197.824333,34.0220084 L198.147666,34.0658037 C199.638233,34.2674782 200.693377,35.6564913 200.491833,37.1525596 L198.767927,49.9651108 C198.566922,51.461179 197.183055,52.5198352 195.691411,52.3176199" id="Fill-49" fill="#8B1D41"></path>
                <path d="M215.180866,54.9573937 L214.857533,54.9135984 C213.366427,54.7113832 212.311283,53.3223701 212.512827,51.8268425 L214.236733,39.0142913 C214.438277,37.5182231 215.822144,36.4595669 217.313249,36.6617822 L217.636583,36.7055774 C219.127688,36.907252 220.182833,38.2962651 219.981288,39.7923333 L218.257383,52.6048845 C218.055838,54.1004121 216.672511,55.1590682 215.180866,54.9573937" id="Fill-51" fill="#8B1D41"></path>
                <path d="M234.670322,57.5969512 L234.346449,57.5531559 C232.856422,57.3514814 231.801277,55.9624682 232.002283,54.4664 L233.726188,41.6538488 C233.927733,40.1577806 235.311599,39.0991244 236.803244,39.3013396 L237.126038,39.3451349 C238.616605,39.5468094 239.671749,40.9363633 239.470205,42.4318908 L237.746838,55.244442 C237.545833,56.7405102 236.161427,57.7991664 234.670322,57.5969512" id="Fill-53" fill="#8B1D41"></path>
                <path d="M216.030748,181.238422 C215.772081,181.869939 215.837826,182.553902 216.211814,183.113508 C216.589576,183.679603 217.215764,184.017529 217.885603,184.017529 C218.306476,184.017529 218.713337,183.882359 219.062537,183.626616 L231.744748,174.356075 L234.400931,170.962212 L234.690853,168.840033 L230.988148,173.571004 L218.427726,182.752873 C217.67382,183.303828 216.672564,182.514973 217.027692,181.64934 L222.938226,167.22934 L237.445653,148.692044 L237.736114,146.569865 L221.998942,166.677303 L216.030748,181.238422 Z" id="Fill-55" fill="#FFFFFF"></path>
                <polygon id="Fill-57" fill="#8B1D41" points="288.837601 99.6537165 280.787678 93.3115118 223.270989 166.803769 231.321451 173.145974"></polygon>
                <polygon id="Fill-59" fill="#FFFFFF" points="223.271043 166.803715 222.938549 167.229232 222.725149 167.748828 230.535266 173.902334 230.987932 173.571437 231.320966 173.14592"></polygon>
                <path d="M275.145943,88.866778 L252.416148,117.910075 C251.805048,118.691361 251.939771,119.822468 252.719543,120.436143 C253.498237,121.049817 254.625593,120.913565 255.237232,120.132279 L275.751654,93.9194551 L278.572737,96.1422005 L280.788109,93.3117281 L275.145943,88.866778 Z" id="Fill-61" fill="#C41F3E"></path>
                <path d="M290.322186,95.6113045 C291.369786,94.2725748 291.137524,92.3353097 289.803236,91.2847638 L288.662408,90.3856089 C287.328119,89.3345223 285.39728,89.5675564 284.350219,90.9062861 L281.826602,94.1303753 L287.798569,98.8353937 L290.322186,95.6113045 Z" id="Fill-63" fill="#C41F3E"></path>
                <path d="M217.027477,181.649232 C216.672888,182.515405 217.673604,183.304261 218.428049,182.752765 L230.535266,173.902334 L222.725149,167.748828 L217.027477,181.649232 Z" id="Fill-65" fill="#C41F3E"></path>
            </g>
        </g>
    </g>
</svg>