<svg width="450" height="250" viewBox="0 0 450 250" fill="none" xmlns="http://www.w3.org/2000/svg">
<path fill-rule="evenodd" clip-rule="evenodd" d="M389 190C389 199.941 315.575 208 225 208C134.425 208 61 199.941 61 190C61 180.059 134.425 172 225 172C315.575 172 389 180.059 389 190" fill="#CCDDF2"/>
<g clip-path="url(#clip0_4801_1184)">
<path d="M264.244 161.514H229.937V177.519H264.244V161.514Z" fill="#8B1D41"/>
<path d="M281.348 186.239H212.834C212.834 186.239 215.66 177.524 221.665 177.524H272.511C278.537 177.524 281.343 186.239 281.343 186.239" fill="#C41F3E"/>
<path d="M318.718 161.514H175.463C173.277 161.514 171.509 159.741 171.509 157.559V66.9547C171.509 64.7683 173.282 63 175.463 63H318.718C320.904 63 322.672 64.7733 322.672 66.9547V157.559C322.672 159.746 320.899 161.514 318.718 161.514Z" fill="#C41F3E"/>
<path d="M174.683 150.773H319.519V68.6675C319.519 67.2771 318.39 66.1486 317 66.1486H177.202C175.811 66.1486 174.683 67.2771 174.683 68.6675V150.773Z" fill="white"/>
<path d="M308.315 80.8136H255.332C253.912 80.8136 252.758 79.6599 252.758 78.2393C252.758 76.8186 253.912 75.665 255.332 75.665H308.315C309.736 75.665 310.889 76.8186 310.889 78.2393C310.889 79.6599 309.736 80.8136 308.315 80.8136Z" fill="#D9D9D6"/>
<path d="M308.315 91.1108H255.332C253.912 91.1108 252.758 89.9572 252.758 88.5365C252.758 87.1159 253.912 85.9622 255.332 85.9622H308.315C309.736 85.9622 310.889 87.1159 310.889 88.5365C310.889 89.9572 309.736 91.1108 308.315 91.1108Z" fill="#D9D9D6"/>
<path d="M308.214 119.564H255.428C253.952 119.564 252.758 118.37 252.758 116.894V98.9295C252.758 97.4534 253.952 96.2594 255.428 96.2594H308.214C309.69 96.2594 310.884 97.4534 310.884 98.9295V116.894C310.884 118.37 309.69 119.564 308.214 119.564Z" fill="#D9D9D6"/>
<path d="M310.889 150.773H184.531V147.937C184.531 146.461 185.725 145.267 187.202 145.267H308.214C309.69 145.267 310.884 146.461 310.884 147.937V150.773H310.889Z" fill="#D9D9D6"/>
<path d="M308.315 129.861H187.106C185.685 129.861 184.531 128.708 184.531 127.287C184.531 125.866 185.685 124.713 187.106 124.713H308.315C309.736 124.713 310.889 125.866 310.889 127.287C310.889 128.708 309.736 129.861 308.315 129.861Z" fill="#D9D9D6"/>
<path d="M308.315 140.159H187.106C185.685 140.159 184.531 139.005 184.531 137.584C184.531 136.164 185.685 135.01 187.106 135.01H308.315C309.736 135.01 310.889 136.164 310.889 137.584C310.889 139.005 309.736 140.159 308.315 140.159Z" fill="#D9D9D6"/>
<path d="M187.66 179.992V120.128C187.66 118.113 186.028 116.486 184.018 116.486H92.8337C90.8186 116.486 89.1914 118.118 89.1914 120.128V179.992H187.665H187.66Z" fill="#8B1D41"/>
<path d="M93.4232 119.06H183.423C184.34 119.06 185.081 119.801 185.081 120.718V177.343H91.7657V120.718C91.7657 119.801 92.5063 119.06 93.4232 119.06Z" fill="white"/>
<path d="M195.766 186.073H81.0806C77.7204 186.073 75 183.348 75 179.992H201.851C201.851 183.353 199.126 186.073 195.771 186.073H195.766Z" fill="#C41F3E"/>
<path d="M147.856 181.987H128.995C128.475 181.987 128.053 182.409 128.053 182.929V183.081C128.053 183.601 128.475 184.023 128.995 184.023H147.856C148.377 184.023 148.798 183.601 148.798 183.081V182.929C148.798 182.409 148.377 181.987 147.856 181.987Z" fill="#8B1D41"/>
<path d="M138.426 118.516C138.832 118.516 139.161 118.187 139.161 117.781C139.161 117.375 138.832 117.045 138.426 117.045C138.019 117.045 137.69 117.375 137.69 117.781C137.69 118.187 138.019 118.516 138.426 118.516Z" fill="white"/>
<path d="M177.569 127H143.725C142.819 127 142.083 126.264 142.083 125.358C142.083 124.451 142.819 123.715 143.725 123.715H177.569C178.476 123.715 179.211 124.451 179.211 125.358C179.211 126.264 178.476 127 177.569 127Z" fill="#D9D9D6"/>
<path d="M177.569 133.579H143.725C142.819 133.579 142.083 132.844 142.083 131.937C142.083 131.03 142.819 130.295 143.725 130.295H177.569C178.476 130.295 179.211 131.03 179.211 131.937C179.211 132.844 178.476 133.579 177.569 133.579Z" fill="#D9D9D6"/>
<path d="M177.509 151.761H143.786C142.844 151.761 142.078 150.995 142.078 150.053V138.577C142.078 137.635 142.844 136.869 143.786 136.869H177.509C178.451 136.869 179.217 137.635 179.217 138.577V150.053C179.217 150.995 178.451 151.761 177.509 151.761Z" fill="#D9D9D6"/>
<path d="M179.217 177.343H98.4962V169.801C98.4962 168.859 99.262 168.093 100.204 168.093H177.514C178.456 168.093 179.222 168.859 179.222 169.801V177.343H179.217Z" fill="#D9D9D6"/>
<path d="M177.569 158.335H100.139C99.2317 158.335 98.4962 157.599 98.4962 156.693C98.4962 155.786 99.2317 155.05 100.139 155.05H177.569C178.476 155.05 179.212 155.786 179.212 156.693C179.212 157.599 178.476 158.335 177.569 158.335Z" fill="#D9D9D6"/>
<path d="M177.569 164.914H100.139C99.2317 164.914 98.4962 164.179 98.4962 163.272C98.4962 162.365 99.2317 161.63 100.139 161.63H177.569C178.476 161.63 179.212 162.365 179.212 163.272C179.212 164.179 178.476 164.914 177.569 164.914Z" fill="#D9D9D6"/>
<path d="M289.856 91.7456L349.867 91.7809C351.977 91.7809 353.7 93.5088 353.7 95.6196L353.65 181.972C353.65 184.083 351.922 185.806 349.811 185.806L289.801 185.771C287.69 185.771 285.967 184.043 285.967 181.932L286.018 95.5743C286.018 93.4635 287.746 91.7406 289.856 91.7406" fill="#8B1D41"/>
<path d="M348.31 94.7179H291.358C289.98 94.7179 288.864 95.8344 288.864 97.2116V180.421C288.864 181.798 289.98 182.914 291.358 182.914H348.31C349.687 182.914 350.804 181.798 350.804 180.421V97.2116C350.804 95.8344 349.687 94.7179 348.31 94.7179Z" fill="white"/>
<path d="M349.05 92.8438V91.6196C349.05 91.5239 348.975 91.4484 348.879 91.4484H344.582C344.486 91.4484 344.411 91.5239 344.411 91.6196V92.8438H349.05Z" fill="#8B1D41"/>
<path d="M352.698 102.844H353.922C354.018 102.844 354.093 102.778 354.093 102.698V99.0756C354.093 98.995 354.018 98.9295 353.922 98.9295H352.698V102.844Z" fill="#8B1D41"/>
<path d="M352.698 107.474H353.922C354.018 107.474 354.093 107.408 354.093 107.327V103.705C354.093 103.625 354.018 103.559 353.922 103.559H352.698V107.474Z" fill="#8B1D41"/>
<path d="M346.385 144.471H293.589C292.27 144.471 291.207 143.403 291.207 142.083V127.136C291.207 125.816 292.275 124.748 293.589 124.748H346.385C347.705 124.748 348.773 125.816 348.773 127.136V142.083C348.773 143.403 347.705 144.471 346.385 144.471Z" fill="#D9D9D6"/>
<path d="M346.385 177.715H293.589C292.27 177.715 291.207 176.647 291.207 175.327V164.496C291.207 163.176 292.275 162.108 293.589 162.108H346.385C347.705 162.108 348.773 163.176 348.773 164.496V175.327C348.773 176.647 347.705 177.715 346.385 177.715Z" fill="#D9D9D6"/>
<path d="M346.778 151.917H293.196C292.093 151.917 291.202 151.025 291.202 149.922C291.202 148.819 292.093 147.927 293.196 147.927H346.778C347.882 147.927 348.773 148.819 348.773 149.922C348.773 151.025 347.882 151.917 346.778 151.917Z" fill="#D9D9D6"/>
<path d="M346.713 108.814H328.134C327.03 108.814 326.139 107.922 326.139 106.819C326.139 105.715 327.03 104.824 328.134 104.824H346.713C347.816 104.824 348.708 105.715 348.708 106.819C348.708 107.922 347.816 108.814 346.713 108.814Z" fill="#D9D9D6"/>
<path d="M346.713 115.574H328.134C327.03 115.574 326.139 114.683 326.139 113.579C326.139 112.476 327.03 111.584 328.134 111.584H346.713C347.816 111.584 348.708 112.476 348.708 113.579C348.708 114.683 347.816 115.574 346.713 115.574Z" fill="#D9D9D6"/>
<path d="M346.778 158.657H293.196C292.093 158.657 291.202 157.766 291.202 156.662C291.202 155.559 292.093 154.668 293.196 154.668H346.778C347.882 154.668 348.773 155.559 348.773 156.662C348.773 157.766 347.882 158.657 346.778 158.657Z" fill="#D9D9D6"/>
<path d="M370.34 122.945H345.267C342.96 122.945 341.091 124.814 341.091 127.121V181.63C341.091 183.936 342.96 185.806 345.267 185.806H370.34C372.647 185.806 374.516 183.936 374.516 181.63V127.121C374.516 124.814 372.647 122.945 370.34 122.945Z" fill="#C41F3E"/>
<path d="M372.325 142.773H374.668C374.849 142.773 375 142.622 375 142.441V134.214C375 134.033 374.849 133.882 374.668 133.882H372.325V142.773Z" fill="#C41F3E"/>
<path d="M372.325 149.665H374.668C374.849 149.665 375 149.514 375 149.332V145.554C375 145.373 374.849 145.222 374.668 145.222H372.325V149.665Z" fill="#C41F3E"/>
<path d="M370.34 124.275H345.267C343.695 124.275 342.421 125.549 342.421 127.121V181.63C342.421 183.202 343.695 184.476 345.267 184.476H370.34C371.912 184.476 373.186 183.202 373.186 181.63V127.121C373.186 125.549 371.912 124.275 370.34 124.275Z" fill="white"/>
<path d="M370.431 184.476V176.723C370.431 174.929 369.272 173.479 367.841 173.479H347.766C346.335 173.479 345.176 174.929 345.176 176.723V184.476H370.431Z" fill="#D9D9D6"/>
<path d="M368.27 150.824H347.448C346.31 150.824 345.282 149.992 345.186 148.854C345.076 147.574 346.083 146.501 347.338 146.501H368.159C369.297 146.501 370.325 147.332 370.426 148.471C370.537 149.751 369.529 150.824 368.275 150.824" fill="#D9D9D6"/>
<path d="M368.265 157.307H347.448C346.31 157.307 345.282 156.476 345.186 155.338C345.076 154.058 346.083 152.985 347.338 152.985H368.154C369.292 152.985 370.32 153.816 370.421 154.955C370.532 156.234 369.524 157.307 368.27 157.307" fill="#D9D9D6"/>
<path d="M367.841 171.101H347.766C346.335 171.101 345.176 169.942 345.176 168.511V162.058C345.176 160.627 346.335 159.469 347.766 159.469H367.841C369.272 159.469 370.431 160.627 370.431 162.058V168.511C370.431 169.942 369.272 171.101 367.841 171.101Z" fill="#D9D9D6"/>
<path d="M124.341 128.579C121.131 128.579 118.362 124.873 118.335 124.835C118.223 124.685 118.137 124.597 117.884 124.209C117.631 124.597 117.544 124.685 117.433 124.835C117.406 124.873 114.637 128.579 111.427 128.579H108.482V139.863C108.482 142.694 116.002 149.638 117.508 151.002C117.616 151.099 117.868 151.325 117.868 151.325C117.868 151.325 118.126 151.099 118.227 151.002C119.734 149.638 127.254 142.694 127.254 139.863V128.579H124.341Z" fill="#C41F3E"/>
<path d="M124.354 128.579C121.188 128.579 118.435 124.871 118.409 124.835C118.299 124.685 117.963 124.209 117.963 124.209V151.325C117.963 151.325 118.219 151.099 118.318 151.002C119.81 149.639 127.254 142.695 127.254 139.864V128.579H124.354Z" fill="#8B1D41"/>
<path d="M118.467 128.862C118.835 129.333 119.256 129.762 119.723 130.14L119.926 130.299L119.929 130.302L119.932 130.305C120.655 130.866 121.387 131.032 121.74 131.025L121.769 132.542C121.038 132.556 119.977 132.257 119.008 131.507V131.508C118.6 131.198 118.218 130.856 117.867 130.486C117.502 130.866 117.105 131.215 116.681 131.531L116.681 131.531C115.681 132.286 114.716 132.553 113.98 132.553V131.036C114.356 131.036 115.006 130.896 115.767 130.321L115.772 130.317C116.337 129.898 116.842 129.408 117.274 128.86L117.872 128.1L118.467 128.862Z" fill="white"/>
<path d="M222.575 81.2829C217.364 81.2829 212.867 75.2647 212.823 75.2036C212.642 74.9589 212.502 74.8162 212.091 74.187C211.68 74.8162 211.54 74.9589 211.359 75.2036C211.316 75.2647 206.819 81.2829 201.607 81.2829H196.824V99.6052C196.824 104.202 209.035 115.478 211.482 117.692C211.657 117.849 212.065 118.216 212.065 118.216C212.065 118.216 212.485 117.849 212.648 117.692C215.095 115.478 227.306 104.202 227.306 99.6052V81.2829H222.575Z" fill="#C41F3E"/>
<path d="M222.597 81.2824C217.456 81.2824 212.987 75.2618 212.944 75.2035C212.765 74.9588 212.219 74.187 212.219 74.187V118.216C212.219 118.216 212.635 117.849 212.796 117.692C215.218 115.478 227.306 104.203 227.306 99.6064V81.2824H222.597Z" fill="#8B1D41"/>
<path d="M213.038 81.7416C213.636 82.5062 214.32 83.2028 215.077 83.8175L215.407 84.0757L215.412 84.0797L215.417 84.0845C216.591 84.9966 217.779 85.2654 218.354 85.2543L218.4 87.7175C217.213 87.7402 215.49 87.2552 213.917 86.0369V86.0377C213.254 85.5342 212.634 84.9788 212.063 84.378C211.471 84.9953 210.827 85.5631 210.137 86.0754L210.138 86.0762C208.515 87.302 206.947 87.7343 205.753 87.7343V85.2712C206.363 85.2712 207.418 85.0442 208.654 84.111L208.663 84.1037C209.58 83.4239 210.4 82.6285 211.1 81.7384L212.071 80.5044L213.038 81.7416Z" fill="white"/>
</g>
<path d="M313.18 102.715C310.614 102.715 308.4 99.7521 308.379 99.7219C308.29 99.6015 308.221 99.5312 308.018 99.2214C307.816 99.5312 307.747 99.6015 307.658 99.7219C307.636 99.7521 305.422 102.715 302.856 102.715H300.501V111.737C300.501 114 306.513 119.552 307.718 120.642C307.804 120.719 308.005 120.9 308.005 120.9C308.005 120.9 308.212 120.719 308.292 120.642C309.497 119.552 315.509 114 315.509 111.737V102.715H313.18Z" fill="#C41F3E"/>
<path d="M313.191 102.715C310.659 102.715 308.459 99.7506 308.438 99.7219C308.35 99.6014 308.081 99.2214 308.081 99.2214V120.9C308.081 120.9 308.286 120.72 308.365 120.642C309.558 119.552 315.509 114 315.509 111.737V102.715H313.191Z" fill="#8B1D41"/>
<path d="M308.484 102.941C308.779 103.318 309.115 103.661 309.488 103.963L309.651 104.09L309.653 104.092L309.656 104.095C310.234 104.544 310.819 104.676 311.101 104.671L311.124 105.883C310.54 105.895 309.692 105.656 308.917 105.056V105.056C308.591 104.808 308.285 104.535 308.004 104.239C307.713 104.543 307.396 104.823 307.056 105.075L307.056 105.075C306.257 105.679 305.485 105.892 304.897 105.892V104.679C305.198 104.679 305.717 104.567 306.326 104.108L306.33 104.104C306.782 103.769 307.185 103.378 307.53 102.94L308.008 102.332L308.484 102.941Z" fill="white"/>
<path d="M361.784 129.803C359.851 129.803 358.183 127.571 358.166 127.548C358.099 127.457 358.047 127.404 357.895 127.171C357.742 127.404 357.69 127.457 357.623 127.548C357.607 127.571 355.939 129.803 354.006 129.803H352.232V136.599C352.232 138.304 356.761 142.487 357.669 143.308C357.734 143.367 357.885 143.503 357.885 143.503C357.885 143.503 358.041 143.367 358.101 143.308C359.009 142.487 363.538 138.304 363.538 136.599V129.803H361.784Z" fill="#C41F3E"/>
<path d="M361.792 129.803C359.885 129.803 358.227 127.569 358.211 127.548C358.145 127.457 357.942 127.171 357.942 127.171V143.503C357.942 143.503 358.096 143.367 358.156 143.308C359.055 142.487 363.538 138.305 363.538 136.6V129.803H361.792Z" fill="#8B1D41"/>
<path d="M358.246 129.973C358.468 130.257 358.721 130.515 359.002 130.743L359.125 130.839L359.126 130.84L359.129 130.842C359.564 131.18 360.005 131.28 360.218 131.276L360.235 132.19C359.795 132.198 359.155 132.018 358.572 131.566V131.567C358.326 131.38 358.096 131.174 357.884 130.951C357.665 131.18 357.426 131.391 357.17 131.581L357.17 131.581C356.568 132.036 355.987 132.196 355.544 132.196V131.282C355.77 131.282 356.161 131.198 356.62 130.852L356.623 130.849C356.963 130.597 357.267 130.302 357.527 129.972L357.887 129.514L358.246 129.973Z" fill="white"/>
<defs>
<clipPath id="clip0_4801_1184">
<rect width="300" height="123.239" fill="white" transform="translate(75 63)"/>
</clipPath>
</defs>
</svg>
