<svg width="250" height="450" viewBox="0 0 250 450" fill="none" xmlns="http://www.w3.org/2000/svg">
<path fill-rule="evenodd" clip-rule="evenodd" d="M178.003 358.69L146.312 327.123C148.33 322.836 146.231 316.042 140.906 310.73C138.383 308.214 135.526 306.42 132.761 305.441C142.525 292.034 142.294 273.243 131.115 259.995C125.775 253.668 118.761 249.578 111.264 247.828L111.406 246.184C111.528 244.768 110.476 243.52 109.056 243.399L108.108 243.317C106.687 243.195 105.437 244.245 105.314 245.661L105.205 246.939C96.0063 246.339 86.5725 249.135 78.9624 255.523C63.3226 268.652 61.3156 291.94 74.4792 307.54C86.1632 321.386 105.87 324.509 121.089 315.855C121.974 318.895 123.882 322.108 126.69 324.909C131.49 329.696 137.498 331.869 141.785 330.779L171.055 365.088C171.852 365.949 174.953 364.385 175.971 363.447C176.99 362.51 178.799 359.55 178.003 358.69" fill="#D9D9D6"/>
<path fill-rule="evenodd" clip-rule="evenodd" d="M72.8104 255.226C88.4253 242.088 111.738 244.092 124.881 259.701C138.023 275.311 136.019 298.615 120.405 311.753C104.789 324.892 81.4764 322.888 68.3332 307.279C55.1906 291.669 57.195 268.364 72.8104 255.226" fill="white"/>
<path fill-rule="evenodd" clip-rule="evenodd" d="M117.164 266.194C113.631 261.997 109.084 259.157 104.185 257.722L105.204 245.881C105.325 244.464 104.275 243.216 102.857 243.094L101.91 243.013C100.491 242.891 99.243 243.941 99.1211 245.359L98.1475 256.682C91.5359 256.301 84.7722 258.341 79.3052 262.94C67.952 272.493 66.4949 289.437 76.051 300.786C85.6062 312.135 102.556 313.592 113.91 304.04C125.263 294.487 126.72 277.543 117.164 266.194" fill="#8B1D41"/>
<path fill-rule="evenodd" clip-rule="evenodd" d="M82.6235 266.882C91.7993 259.161 105.499 260.339 113.222 269.511C120.945 278.684 119.767 292.379 110.592 300.099C101.416 307.82 87.7162 306.643 79.993 297.469C72.2697 288.297 73.4472 274.602 82.6235 266.882" fill="#C41F3E"/>
<path fill-rule="evenodd" clip-rule="evenodd" d="M171.696 358.464L140.054 326.876C142.069 322.586 139.974 315.788 134.657 310.472C128.477 304.294 120.289 302.462 116.37 306.38C112.451 310.298 114.283 318.482 120.463 324.66C125.256 329.451 131.254 331.626 135.534 330.535L164.76 364.867C165.555 365.728 168.651 364.163 169.668 363.225C170.685 362.287 172.492 359.325 171.696 358.464" fill="#C41F3E"/>
<path fill-rule="evenodd" clip-rule="evenodd" d="M162.594 204.037L138.645 97.2339C138.117 94.8809 135.777 93.4 133.418 93.9265L124.344 95.9505L123.506 92.2106C123.238 91.0147 122.048 90.2619 120.849 90.5297C119.65 90.7969 118.895 91.9833 119.164 93.1792L120.002 96.9191L100.355 101.302L99.5161 97.5623C99.2481 96.3659 98.0587 95.6135 96.8597 95.8808C95.6606 96.1486 94.9059 97.3349 95.1743 98.5309L96.0127 102.271L76.3655 106.654L75.5272 102.913C75.2587 101.718 74.0698 100.965 72.8702 101.232C71.6717 101.5 70.9169 102.687 71.1849 103.882L72.0237 107.622L52.3766 112.006L51.5377 108.265C51.2697 107.069 50.0803 106.317 48.8813 106.584C47.6822 106.851 46.9279 108.038 47.1959 109.234L48.0348 112.974L28.3871 117.357L27.5487 113.617C27.2803 112.421 26.0908 111.669 24.8923 111.936C23.6928 112.203 22.9385 113.389 23.2065 114.585L24.0453 118.325L14.9712 120.35C12.6121 120.876 11.1279 123.21 11.6552 125.563L35.6047 232.366C36.1325 234.719 38.4723 236.199 40.8314 235.673L159.278 209.249C161.637 208.723 163.122 206.39 162.594 204.037" fill="#D9D9D6"/>
<path fill-rule="evenodd" clip-rule="evenodd" d="M136.5 110.98L9.70793 139.328L5.33295 119.773C4.80593 117.419 6.28836 115.083 8.64326 114.557L126.906 88.115C129.261 87.5886 131.598 89.0705 132.125 91.4246L136.5 110.98Z" fill="#C41F3E"/>
<path fill-rule="evenodd" clip-rule="evenodd" d="M21.3811 118.794V118.794C20.1839 119.062 18.9963 118.309 18.7288 117.112L16.866 108.787C16.5984 107.591 17.3515 106.403 18.5487 106.136C19.7459 105.869 20.9335 106.621 21.2015 107.818L23.0638 116.143C23.3313 117.34 22.5782 118.527 21.3811 118.794" fill="#8B1D41"/>
<path fill-rule="evenodd" clip-rule="evenodd" d="M45.3332 113.44V113.44C44.136 113.707 42.9485 112.954 42.6809 111.758L40.8181 103.433C40.5506 102.236 41.3042 101.049 42.5008 100.781C43.698 100.514 44.8856 101.267 45.1536 102.464L47.0159 110.788C47.2835 111.985 46.5304 113.172 45.3332 113.44" fill="#8B1D41"/>
<path fill-rule="evenodd" clip-rule="evenodd" d="M69.2848 108.084V108.084C68.0877 108.352 66.9001 107.599 66.6326 106.402L64.7698 98.0774C64.5022 96.8806 65.2558 95.6935 66.4525 95.426C67.6502 95.1586 68.8372 95.9114 69.1053 97.1082L70.9676 105.433C71.2351 106.63 70.482 107.817 69.2848 108.084" fill="#8B1D41"/>
<path fill-rule="evenodd" clip-rule="evenodd" d="M93.2372 102.729V102.729C92.04 102.996 90.8524 102.243 90.5844 101.047L88.7221 92.7219C88.454 91.5252 89.2077 90.338 90.4048 90.0706C91.602 89.8031 92.7896 90.5559 93.0576 91.7527L94.9199 100.077C95.1875 101.274 94.4344 102.461 93.2372 102.729" fill="#8B1D41"/>
<path fill-rule="evenodd" clip-rule="evenodd" d="M117.189 97.3743V97.3743C115.992 97.6417 114.804 96.8889 114.536 95.6921L112.674 87.3674C112.406 86.1707 113.159 84.9835 114.356 84.7161C115.554 84.4486 116.741 85.2014 117.009 86.3982L118.871 94.7229C119.139 95.9197 118.386 97.1068 117.189 97.3743" fill="#8B1D41"/>
<path fill-rule="evenodd" clip-rule="evenodd" d="M152.726 203.517L34.4633 229.958C32.1084 230.485 29.7717 229.003 29.2452 226.649L9.70801 139.328L136.5 110.979L156.037 198.301C156.564 200.655 155.081 202.99 152.726 203.517" fill="#8B1D41"/>
<path fill-rule="evenodd" clip-rule="evenodd" d="M122.568 107.657L85.6083 115.921C84.0121 116.278 82.4285 115.273 82.0714 113.678C81.7149 112.082 82.7188 110.499 84.3156 110.142L121.275 101.879C122.871 101.522 124.454 102.526 124.812 104.122C125.169 105.718 124.164 107.3 122.568 107.657" fill="#F2F3F2"/>
<path fill-rule="evenodd" clip-rule="evenodd" d="M97.4792 140.479L89.9381 142.165C89.1531 142.341 88.3742 141.847 88.1987 141.062L86.512 133.524C86.3365 132.739 86.8306 131.96 87.6156 131.785L95.1567 130.099C95.9417 129.923 96.7206 130.417 96.8961 131.202L98.5829 138.741C98.7584 139.525 98.2642 140.304 97.4792 140.479" fill="#F2F3F2"/>
<path fill-rule="evenodd" clip-rule="evenodd" d="M113.657 136.862L106.116 138.548C105.331 138.724 104.552 138.23 104.376 137.445L102.69 129.907C102.514 129.121 103.008 128.343 103.794 128.168L111.335 126.482C112.12 126.306 112.899 126.8 113.074 127.585L114.761 135.123C114.937 135.908 114.442 136.687 113.657 136.862" fill="#F2F3F2"/>
<path fill-rule="evenodd" clip-rule="evenodd" d="M129.835 133.245L122.294 134.931C121.509 135.107 120.73 134.613 120.554 133.828L118.868 126.289C118.692 125.504 119.186 124.726 119.972 124.55L127.513 122.865C128.298 122.689 129.077 123.183 129.252 123.967L130.939 131.506C131.114 132.291 130.62 133.07 129.835 133.245" fill="#F2F3F2"/>
<path fill-rule="evenodd" clip-rule="evenodd" d="M36.1428 170.03L28.6017 171.716C27.8167 171.892 27.0378 171.398 26.8623 170.613L25.1755 163.075C25 162.289 25.4942 161.511 26.2791 161.336L33.8203 159.65C34.6053 159.474 35.3842 159.968 35.5597 160.753L37.2464 168.291C37.4219 169.076 36.9278 169.855 36.1428 170.03" fill="#F2F3F2"/>
<path fill-rule="evenodd" clip-rule="evenodd" d="M52.3206 166.413L44.7794 168.099C43.9944 168.275 43.2155 167.781 43.04 166.996L41.3533 159.457C41.1778 158.672 41.6719 157.894 42.4569 157.718L49.998 156.032C50.783 155.857 51.5619 156.351 51.7374 157.135L53.4242 164.674C53.5997 165.459 53.1055 166.238 52.3206 166.413" fill="#F2F3F2"/>
<path fill-rule="evenodd" clip-rule="evenodd" d="M68.4983 162.796L60.9572 164.482C60.1722 164.657 59.3933 164.163 59.2173 163.379L57.531 155.84C57.3555 155.055 57.8492 154.277 58.6346 154.101L66.1758 152.415C66.9607 152.24 67.7396 152.734 67.9151 153.518L69.6019 161.057C69.7774 161.842 69.2833 162.62 68.4983 162.796" fill="#F2F3F2"/>
<path fill-rule="evenodd" clip-rule="evenodd" d="M84.676 159.179L77.1349 160.864C76.3499 161.04 75.571 160.546 75.3955 159.762L73.7087 152.223C73.5332 151.438 74.0274 150.659 74.8123 150.484L82.3535 148.798C83.1385 148.623 83.9174 149.116 84.0929 149.901L85.7796 157.44C85.9551 158.225 85.461 159.003 84.676 159.179" fill="#F2F3F2"/>
<path fill-rule="evenodd" clip-rule="evenodd" d="M100.854 155.561L93.3126 157.248C92.5277 157.423 91.7488 156.929 91.5732 156.144L89.8865 148.606C89.711 147.821 90.2051 147.043 90.9901 146.867L98.5312 145.181C99.3162 145.005 100.095 145.499 100.271 146.284L101.957 153.823C102.133 154.607 101.639 155.386 100.854 155.561" fill="#F2F3F2"/>
<path fill-rule="evenodd" clip-rule="evenodd" d="M117.032 151.944L109.49 153.63C108.705 153.806 107.926 153.312 107.75 152.527L106.064 144.989C105.888 144.203 106.382 143.425 107.168 143.25L114.709 141.564C115.494 141.388 116.273 141.882 116.448 142.667L118.135 150.205C118.311 150.99 117.816 151.769 117.032 151.944" fill="#F2F3F2"/>
<path fill-rule="evenodd" clip-rule="evenodd" d="M133.21 148.328L125.669 150.013C124.884 150.189 124.105 149.695 123.929 148.91L122.242 141.372C122.067 140.587 122.561 139.808 123.346 139.633L130.887 137.947C131.672 137.771 132.451 138.265 132.627 139.05L134.313 146.589C134.489 147.373 133.995 148.152 133.21 148.328" fill="#F2F3F2"/>
<path fill-rule="evenodd" clip-rule="evenodd" d="M39.7478 186.143L32.2067 187.83C31.4217 188.005 30.6428 187.511 30.4668 186.726L28.7805 179.188C28.605 178.403 29.0987 177.625 29.8842 177.449L37.4253 175.763C38.2103 175.587 38.9892 176.081 39.1647 176.866L40.8514 184.405C41.0269 185.189 40.5328 185.968 39.7478 186.143" fill="#F2F3F2"/>
<path fill-rule="evenodd" clip-rule="evenodd" d="M55.9255 182.527L48.3844 184.213C47.5994 184.389 46.8205 183.895 46.645 183.11L44.9583 175.572C44.7827 174.786 45.2769 174.008 46.0619 173.832L53.603 172.147C54.388 171.971 55.1669 172.465 55.3424 173.249L57.0291 180.788C57.2046 181.573 56.7105 182.352 55.9255 182.527" fill="#F2F3F2"/>
<path fill-rule="evenodd" clip-rule="evenodd" d="M72.1038 178.91L64.5626 180.596C63.7777 180.772 62.9988 180.278 62.8228 179.493L61.136 171.954C60.9605 171.17 61.4546 170.391 62.2401 170.216L69.7812 168.53C70.5662 168.354 71.3451 168.848 71.5206 169.633L73.2074 177.171C73.3829 177.956 72.8887 178.735 72.1038 178.91" fill="#F2F3F2"/>
<path fill-rule="evenodd" clip-rule="evenodd" d="M88.2815 175.293L80.7404 176.979C79.9554 177.154 79.1765 176.66 79.0005 175.876L77.3142 168.337C77.1387 167.552 77.6324 166.774 78.4178 166.599L85.959 164.912C86.744 164.737 87.5229 165.231 87.6984 166.016L89.3851 173.554C89.5606 174.339 89.0665 175.117 88.2815 175.293" fill="#F2F3F2"/>
<path fill-rule="evenodd" clip-rule="evenodd" d="M104.459 171.676L96.9181 173.361C96.1331 173.537 95.3542 173.043 95.1787 172.259L93.4919 164.72C93.3164 163.935 93.8106 163.156 94.5956 162.981L102.137 161.295C102.922 161.12 103.701 161.613 103.876 162.398L105.563 169.937C105.738 170.722 105.244 171.5 104.459 171.676" fill="#F2F3F2"/>
<path fill-rule="evenodd" clip-rule="evenodd" d="M120.637 168.058L113.096 169.745C112.311 169.92 111.532 169.426 111.356 168.641L109.67 161.103C109.494 160.318 109.988 159.54 110.773 159.364L118.314 157.678C119.099 157.503 119.878 157.996 120.054 158.781L121.741 166.32C121.916 167.104 121.422 167.883 120.637 168.058" fill="#F2F3F2"/>
<path fill-rule="evenodd" clip-rule="evenodd" d="M136.815 164.441L129.274 166.127C128.489 166.303 127.71 165.809 127.534 165.024L125.847 157.486C125.672 156.701 126.166 155.922 126.951 155.746L134.492 154.061C135.277 153.885 136.056 154.379 136.232 155.164L137.918 162.703C138.094 163.487 137.6 164.266 136.815 164.441" fill="#F2F3F2"/>
<path fill-rule="evenodd" clip-rule="evenodd" d="M43.238 201.742L35.6969 203.428C34.9119 203.604 34.133 203.11 33.9575 202.325L32.2708 194.787C32.0952 194.001 32.5894 193.223 33.3744 193.047L40.9155 191.362C41.7005 191.186 42.4794 191.68 42.6549 192.464L44.3416 200.003C44.5171 200.788 44.023 201.567 43.238 201.742" fill="#F2F3F2"/>
<path fill-rule="evenodd" clip-rule="evenodd" d="M59.4158 198.125L51.8747 199.811C51.0897 199.986 50.3108 199.493 50.1348 198.708L48.4485 191.169C48.273 190.384 48.7666 189.606 49.5521 189.431L57.0933 187.744C57.8782 187.569 58.6571 188.063 58.8326 188.848L60.5194 196.386C60.6949 197.171 60.2008 197.949 59.4158 198.125" fill="#F2F3F2"/>
<path fill-rule="evenodd" clip-rule="evenodd" d="M75.5935 194.508L68.0524 196.194C67.2674 196.369 66.4885 195.875 66.313 195.091L64.6262 187.552C64.4507 186.767 64.9444 185.989 65.7299 185.813L73.271 184.127C74.056 183.952 74.8349 184.445 75.0104 185.23L76.6971 192.769C76.8726 193.554 76.3785 194.332 75.5935 194.508" fill="#F2F3F2"/>
<path fill-rule="evenodd" clip-rule="evenodd" d="M91.7712 190.89L84.2301 192.577C83.4451 192.752 82.6662 192.258 82.4907 191.473L80.804 183.935C80.6285 183.15 81.1226 182.372 81.9076 182.196L89.4487 180.51C90.2337 180.335 91.0126 180.829 91.1881 181.613L92.8748 189.152C93.0504 189.936 92.5562 190.715 91.7712 190.89" fill="#F2F3F2"/>
<path fill-rule="evenodd" clip-rule="evenodd" d="M107.949 187.274L100.408 188.96C99.6234 189.136 98.8445 188.642 98.6685 187.857L96.9817 180.319C96.8062 179.534 97.3003 178.755 98.0858 178.58L105.627 176.894C106.412 176.718 107.191 177.212 107.366 177.997L109.053 185.536C109.229 186.32 108.734 187.099 107.949 187.274" fill="#F2F3F2"/>
<path fill-rule="evenodd" clip-rule="evenodd" d="M124.127 183.657L116.586 185.343C115.801 185.519 115.022 185.025 114.846 184.24L113.159 176.702C112.984 175.916 113.478 175.138 114.263 174.962L121.804 173.277C122.589 173.101 123.368 173.595 123.544 174.379L125.23 181.918C125.406 182.703 124.912 183.482 124.127 183.657" fill="#F2F3F2"/>
<path fill-rule="evenodd" clip-rule="evenodd" d="M140.305 180.04L132.764 181.726C131.979 181.902 131.2 181.408 131.024 180.623L129.338 173.084C129.162 172.299 129.656 171.521 130.441 171.346L137.982 169.659C138.767 169.484 139.546 169.978 139.722 170.763L141.409 178.301C141.584 179.086 141.09 179.864 140.305 180.04" fill="#F2F3F2"/>
<path fill-rule="evenodd" clip-rule="evenodd" d="M46.7278 217.341L39.1867 219.027C38.4017 219.202 37.6228 218.708 37.4468 217.924L35.7605 210.385C35.585 209.6 36.0787 208.821 36.8641 208.646L44.4053 206.96C45.1902 206.785 45.9691 207.279 46.1446 208.063L47.8314 215.602C48.0069 216.387 47.5128 217.165 46.7278 217.341" fill="#F2F3F2"/>
<path fill-rule="evenodd" clip-rule="evenodd" d="M62.9055 213.723L55.3644 215.41C54.5794 215.586 53.8005 215.091 53.625 214.306L51.9382 206.768C51.7627 205.983 52.2569 205.205 53.0418 205.029L60.583 203.343C61.368 203.168 62.1469 203.662 62.3224 204.446L64.0091 211.985C64.1846 212.769 63.6905 213.548 62.9055 213.723" fill="#F2F3F2"/>
<path fill-rule="evenodd" clip-rule="evenodd" d="M214.709 121.908L206.702 117.359C206.427 117.202 206.33 116.851 206.487 116.575C206.644 116.3 206.994 116.204 207.27 116.36L215.277 120.91C215.553 121.067 215.649 121.417 215.493 121.693C215.335 121.969 214.985 122.065 214.709 121.908" fill="#F2F3F2"/>
<path fill-rule="evenodd" clip-rule="evenodd" d="M156.45 224.656C155.154 226.936 152.254 227.733 149.973 226.437C147.693 225.141 146.895 222.243 148.191 219.963C149.487 217.683 152.387 216.886 154.668 218.181C156.948 219.478 157.746 222.376 156.45 224.656" fill="#F2F3F2"/>
<path fill-rule="evenodd" clip-rule="evenodd" d="M174.92 248.981L129.271 223.1C126.038 221.267 124.907 217.167 126.744 213.943L186.537 109.027C188.375 105.803 192.485 104.674 195.717 106.507L241.367 132.389C244.6 134.221 245.73 138.32 243.893 141.545L184.1 246.462C182.263 249.686 178.153 250.814 174.92 248.981" fill="#D9D9D6"/>
<path fill-rule="evenodd" clip-rule="evenodd" d="M171.207 242.124L125.628 216.225C122.401 214.391 121.271 210.289 123.106 207.062L182.806 102.074C184.64 98.8479 188.744 97.7189 191.971 99.5527L237.55 125.452C240.777 127.286 241.907 131.388 240.072 134.614L180.372 239.603C178.538 242.83 174.434 243.958 171.207 242.124" fill="#C41F3E"/>
<path fill-rule="evenodd" clip-rule="evenodd" d="M181.334 229.544L131.26 201.09L181.86 112.104L231.934 140.558L181.334 229.544Z" fill="white"/>
<path fill-rule="evenodd" clip-rule="evenodd" d="M200.62 178.609L165.174 158.468C163.153 157.32 162.446 154.751 163.595 152.73C164.743 150.71 167.313 150.004 169.334 151.152L204.78 171.293C206.801 172.442 207.508 175.011 206.359 177.031C205.211 179.051 202.641 179.758 200.62 178.609" fill="#F2F3F2"/>
<path fill-rule="evenodd" clip-rule="evenodd" d="M194.375 189.581L158.939 169.446C156.918 168.297 156.211 165.728 157.36 163.708C158.509 161.688 161.078 160.981 163.099 162.13L198.535 182.265C200.556 183.414 201.263 185.982 200.114 188.003C198.965 190.023 196.396 190.729 194.375 189.581" fill="#F2F3F2"/>
<path fill-rule="evenodd" clip-rule="evenodd" d="M182.233 213.568L144.539 192.149C143.14 191.354 142.65 189.576 143.446 188.178L151.76 173.556C152.555 172.158 154.334 171.668 155.732 172.463L193.427 193.882C194.825 194.677 195.315 196.455 194.52 197.853L186.205 212.475C185.41 213.873 183.632 214.363 182.233 213.568" fill="#F2F3F2"/>
<path fill-rule="evenodd" clip-rule="evenodd" d="M174.861 223.899L139.425 203.763C137.403 202.614 136.697 200.045 137.846 198.026C138.994 196.005 141.564 195.299 143.585 196.447L179.021 216.583C181.042 217.731 181.749 220.3 180.6 222.32C179.451 224.34 176.882 225.047 174.861 223.899" fill="#F2F3F2"/>
<path fill-rule="evenodd" clip-rule="evenodd" d="M204.807 131.395L201.01 138.07C204.252 140.31 205.302 144.692 203.318 148.18C201.221 151.87 196.528 153.161 192.838 151.063C192.036 150.607 191.353 150.025 190.788 149.361L184.524 153.808C185.726 155.354 187.241 156.697 189.05 157.725C196.421 161.913 205.792 159.335 209.982 151.967C214.058 144.798 211.725 135.737 204.807 131.395" fill="#C41F3E"/>
<path fill-rule="evenodd" clip-rule="evenodd" d="M189.954 140.587C192.052 136.898 196.744 135.606 200.434 137.704L204.222 131.042C196.851 126.854 187.48 129.432 183.29 136.8C180.249 142.15 180.777 148.552 184.115 153.262L190.364 148.826C188.696 146.468 188.432 143.264 189.954 140.587" fill="#8B1D41"/>
<path d="M147.822 161.544L148.146 163.029L122.22 210.337L120.382 210.75L147.822 161.544Z" fill="white"/>
</svg>
