<?xml version="1.0" encoding="utf-8"?>
<!-- Generator: Adobe Illustrator 25.0.0, SVG Export Plug-In . SVG Version: 6.00 Build 0)  -->
<svg version="1.1" id="Layer_1" xmlns="http://www.w3.org/2000/svg" xmlns:xlink="http://www.w3.org/1999/xlink" x="0px" y="0px"
	 viewBox="0 0 450 250" style="enable-background:new 0 0 450 250;" xml:space="preserve">
<style type="text/css">
	.st0{fill-rule:evenodd;clip-rule:evenodd;fill:#CCDDF2;}
	.st1{fill:#C41F3E;}
	.st2{fill:#8B1D41;}
</style>
<desc>Created with Sketch.</desc>
<g>
	<ellipse class="st0" cx="225" cy="192.5" rx="63.5" ry="15.5"/>
	<g>
		<g>
			<path class="st1" d="M182.7,55.4c-0.9,0-1.6,0.7-1.6,1.5l0,0c0.4,9.3-8.2,17.3-17.2,17.3c-0.2,0-0.5,0-0.8,0
				c-0.9,0-1.6,0.6-1.6,1.4v13c0,43.3,19.8,82.6,50.5,100l9.9,5.7c0.9,0.6,2,0.9,3,0.9V55.4H182.7z"/>
		</g>
		<g>
			<path class="st2" d="M267.3,55.4c0.9,0,1.6,0.7,1.6,1.5l0,0c-0.4,9.3,8.2,17.3,17.2,17.3c0.1,0,0.2,0,0.3,0c1,0,2,0.8,2,1.9v12.7
				c0,43.3-19.8,82.6-50.5,100l-9.9,5.7c-0.9,0.6-2,0.9-3,0.9v-140L267.3,55.4L267.3,55.4z"/>
		</g>
	</g>
</g>
</svg>
