<?xml version="1.0" encoding="UTF-8"?>
<svg width="256px" height="256px" viewBox="0 0 256 256" version="1.1" xmlns="http://www.w3.org/2000/svg" xmlns:xlink="http://www.w3.org/1999/xlink">
    <!-- Generator: Sketch 56.3 (81716) - https://sketch.com -->
    <title>Icons/Illustrative/users/users-256x256</title>
    <desc>Created with Sketch.</desc>
    <g id="Icons/Illustrative/users/users-256x256" stroke="none" stroke-width="1" fill="none" fill-rule="evenodd">
        <g id="Icons/Illustrative/Oval" fill="#F2F3F2">
            <circle id="Oval" cx="128" cy="128" r="128"></circle>
        </g>
        <g id="welcome" transform="translate(45.000000, 73.000000)" fill-rule="nonzero">
            <path d="M163.725333,98.6906667 C162.701333,86.232 157.069333,74.968 147.512,66.776 C140.344,60.632 131.810667,57.048 122.765333,55.8533333 C135.565333,53.2933333 145.293333,41.8586667 145.122667,28.2053333 L145.122667,28.2053333 C145.122667,12.6746667 132.493333,0.216 117.133333,0.216 L117.133333,0.216 C101.602667,0.216 89.144,12.8453333 89.144,28.376 C89.144,41.8586667 98.872,53.1226667 111.501333,55.8533333 C89.3146667,58.4133333 72.248,76.1626667 70.5413333,98.52 C70.5413333,98.6906667 70.5413333,98.8613333 70.5413333,98.8613333 C70.712,99.3733333 70.712,99.544 71.224,100.056 C71.5653333,100.397333 71.9066667,100.568 72.4186667,100.568 L72.5893333,100.568 L162.018667,100.568 L162.018667,100.568 C162.530667,100.568 162.872,100.397333 163.213333,100.056 C163.554667,99.7146667 163.725333,99.2026667 163.725333,98.6906667 L163.725333,98.6906667 L163.725333,98.6906667 Z" id="Path" fill="#8B1D41"></path>
            <path d="M80.0986667,68.9946667 C79.416,68.312 78.5626667,67.4586667 77.7093333,66.776 C70.712,60.8026667 62.1786667,57.048 53.1333333,56.024 C66.104,53.464 76.0026667,42.2 75.832,28.376 C75.832,12.8453333 63.2026667,0.386666667 47.8426667,0.386666667 L47.8426667,0.386666667 C32.312,0.386666667 19.8533333,13.016 19.8533333,28.5466667 C19.8533333,42.0293333 29.4106667,53.2933333 42.2106667,55.8533333 C19.8533333,58.4133333 2.44533333,75.992 0.738666667,98.6906667 C0.738666667,98.8613333 0.738666667,98.8613333 0.738666667,99.032 C0.909333333,99.544 1.08,100.056 1.42133333,100.397333 C1.76266667,100.738667 2.104,100.909333 2.44533333,100.909333 L2.616,100.909333 L67.8106667,100.909333 C67.4693333,100.226667 67.2986667,99.3733333 67.4693333,98.52 C68.3226667,87.0853333 72.9306667,76.8453333 80.0986667,68.9946667 Z" id="Path" fill="#C41F3E"></path>
            <path d="M80.0986667,68.9946667 C79.416,68.312 78.5626667,67.4586667 77.7093333,66.776 C70.712,60.8026667 62.1786667,57.048 53.1333333,56.024 C66.104,53.464 76.0026667,42.2 75.832,28.376 C75.832,12.8453333 63.2026667,0.386666667 47.8426667,0.386666667 L47.8426667,0.386666667 C32.312,0.386666667 19.8533333,13.016 19.8533333,28.5466667 C19.8533333,42.0293333 29.4106667,53.2933333 42.2106667,55.8533333 C19.8533333,58.4133333 2.44533333,75.992 0.738666667,98.6906667 C0.738666667,98.8613333 0.738666667,98.8613333 0.738666667,99.032 C0.909333333,99.544 1.08,100.056 1.42133333,100.397333 C1.76266667,100.738667 2.104,100.909333 2.44533333,100.909333 L2.616,100.909333 L67.8106667,100.909333 C67.4693333,100.226667 67.2986667,99.3733333 67.4693333,98.52 C68.3226667,87.0853333 72.9306667,76.8453333 80.0986667,68.9946667 Z" id="Path" fill="#C41F3E"></path>
        </g>
    </g>
</svg>